<svg xmlns="http://www.w3.org/2000/svg" xmlns:xlink="http://www.w3.org/1999/xlink" width="1000" zoomAndPan="magnify" viewBox="0 0 750 262.499992" height="350" preserveAspectRatio="xMidYMid meet" version="1.0"><defs><clipPath id="9c524b49f8"><path d="M 0.714844 50.019531 L 162 50.019531 L 162 211.710938 L 0.714844 211.710938 Z M 0.714844 50.019531 " clip-rule="nonzero"/></clipPath><clipPath id="4d32ff244f"><path d="M 193 65 L 749.285156 65 L 749.285156 198 L 193 198 Z M 193 65 " clip-rule="nonzero"/></clipPath></defs><g clip-path="url(#9c524b49f8)"><path fill="#d97757" d="M 32.242188 157.503906 L 63.851562 139.765625 L 64.378906 138.21875 L 63.851562 137.367188 L 62.304688 137.367188 L 57.015625 137.039062 L 38.953125 136.550781 L 23.289062 135.902344 L 8.117188 135.085938 L 4.292969 134.273438 L 0.714844 129.554688 L 1.078125 127.195312 L 4.292969 125.039062 L 8.890625 125.445312 L 19.058594 126.136719 L 34.316406 127.195312 L 45.378906 127.847656 L 61.773438 129.554688 L 64.378906 129.554688 L 64.746094 128.496094 L 63.851562 127.847656 L 63.160156 127.195312 L 47.375 116.496094 L 30.289062 105.1875 L 21.339844 98.675781 L 16.496094 95.382812 L 14.054688 92.289062 L 13 85.539062 L 17.390625 80.695312 L 23.289062 81.101562 L 24.796875 81.511719 L 30.777344 86.105469 L 43.550781 95.992188 L 60.230469 108.277344 L 62.671875 110.3125 L 63.648438 109.621094 L 63.769531 109.132812 L 62.671875 107.300781 L 53.597656 90.90625 L 43.917969 74.226562 L 39.605469 67.3125 L 38.464844 63.164062 C 38.058594 61.453125 37.773438 60.03125 37.773438 58.28125 L 42.777344 51.488281 L 45.542969 50.59375 L 52.214844 51.488281 L 55.023438 53.929688 L 59.171875 63.40625 L 65.882812 78.335938 L 76.296875 98.636719 L 79.351562 104.65625 L 80.976562 110.230469 L 81.585938 111.941406 L 82.644531 111.941406 L 82.644531 110.964844 L 83.5 99.53125 L 85.085938 85.496094 L 86.632812 67.433594 L 87.160156 62.347656 L 89.683594 56.246094 L 94.6875 52.953125 L 98.59375 54.824219 L 101.804688 59.421875 L 101.359375 62.390625 L 99.445312 74.796875 L 95.703125 94.242188 L 93.261719 107.261719 L 94.6875 107.261719 L 96.3125 105.632812 L 102.902344 96.886719 L 113.96875 83.054688 L 118.851562 77.5625 L 124.546875 71.503906 L 128.207031 68.613281 L 135.125 68.613281 L 140.207031 76.179688 L 137.929688 83.992188 L 130.8125 93.023438 L 124.914062 100.671875 L 116.449219 112.0625 L 111.164062 121.175781 L 111.652344 121.90625 L 112.910156 121.785156 L 132.03125 117.714844 L 142.363281 115.84375 L 154.691406 113.730469 L 160.265625 116.332031 L 160.875 118.976562 L 158.679688 124.386719 L 145.496094 127.644531 L 130.039062 130.734375 L 107.011719 136.1875 L 106.726562 136.390625 L 107.054688 136.796875 L 117.425781 137.773438 L 121.863281 138.015625 L 132.722656 138.015625 L 152.941406 139.523438 L 158.230469 143.019531 L 161.402344 147.292969 L 160.875 150.546875 L 152.738281 154.695312 L 141.753906 152.09375 L 116.125 145.988281 L 107.339844 143.792969 L 106.117188 143.792969 L 106.117188 144.523438 L 113.441406 151.683594 L 126.863281 163.808594 L 143.667969 179.429688 L 144.519531 183.292969 L 142.363281 186.34375 L 140.085938 186.019531 L 125.320312 174.914062 L 119.625 169.910156 L 106.726562 159.046875 L 105.875 159.046875 L 105.875 160.1875 L 108.84375 164.539062 L 124.546875 188.136719 L 125.359375 195.375 L 124.222656 197.734375 L 120.152344 199.160156 L 115.679688 198.347656 L 106.484375 185.449219 L 97.003906 170.925781 L 89.355469 157.910156 L 88.421875 158.4375 L 83.90625 207.050781 L 81.789062 209.535156 L 76.910156 211.40625 L 72.839844 208.3125 L 70.683594 203.308594 L 72.839844 193.425781 L 75.445312 180.527344 L 77.558594 170.277344 L 79.472656 157.542969 L 80.609375 153.3125 L 80.53125 153.027344 L 79.59375 153.148438 L 69.992188 166.332031 L 55.386719 186.0625 L 43.835938 198.429688 L 41.070312 199.527344 L 36.269531 197.042969 L 36.714844 192.609375 L 39.402344 188.664062 L 55.386719 168.324219 L 65.03125 155.710938 L 71.253906 148.429688 L 71.253906 147.371094 L 70.847656 147.371094 L 28.375 174.953125 L 20.808594 175.929688 L 17.554688 172.878906 L 17.960938 167.875 L 19.507812 166.25 L 32.28125 157.460938 L 32.242188 157.460938 Z M 32.242188 157.503906 " fill-opacity="1" fill-rule="nonzero"/></g><g clip-path="url(#4d32ff244f)"><path fill="#ffffff" d="M 263.023438 187.078125 C 242.601562 187.078125 228.648438 175.6875 222.058594 158.152344 C 218.601562 149 216.933594 139.316406 217.054688 129.554688 C 217.054688 100.140625 230.234375 79.71875 259.363281 79.71875 C 278.929688 79.71875 291.015625 88.261719 297.890625 108.644531 L 306.269531 108.644531 L 305.128906 80.535156 C 293.414062 72.96875 278.769531 69.144531 260.949219 69.144531 C 235.851562 69.144531 214.492188 80.371094 202.613281 100.628906 C 196.472656 111.328125 193.339844 123.492188 193.582031 135.820312 C 193.582031 158.316406 204.199219 178.25 224.132812 189.316406 C 235.035156 195.132812 247.28125 198.019531 259.648438 197.695312 C 279.09375 197.695312 294.511719 193.992188 308.179688 187.523438 L 311.71875 156.527344 L 303.175781 156.527344 C 298.050781 170.683594 291.949219 179.1875 281.820312 183.703125 C 276.855469 185.9375 270.59375 187.078125 263.023438 187.078125 Z M 351.101562 79.71875 L 351.914062 65.886719 L 346.136719 65.886719 L 320.425781 73.617188 L 320.425781 77.808594 L 331.816406 83.097656 L 331.816406 179.835938 C 331.816406 186.425781 328.441406 187.890625 319.613281 188.988281 L 319.613281 196.070312 L 363.34375 196.070312 L 363.34375 188.988281 C 354.476562 187.890625 351.140625 186.425781 351.140625 179.835938 L 351.140625 79.761719 L 351.101562 79.761719 Z M 525.011719 197.695312 L 528.386719 197.695312 L 557.964844 192.082031 L 557.964844 184.839844 L 553.8125 184.515625 C 546.898438 183.863281 545.109375 182.441406 545.109375 176.785156 L 545.109375 125.203125 L 545.921875 108.644531 L 541.242188 108.644531 L 513.296875 112.671875 L 513.296875 119.75 L 516.019531 120.238281 C 523.589844 121.335938 525.824219 123.453125 525.824219 128.742188 L 525.824219 174.710938 C 518.585938 180.324219 511.667969 183.863281 503.449219 183.863281 C 494.339844 183.863281 488.683594 179.226562 488.683594 168.40625 L 488.683594 125.242188 L 489.496094 108.683594 L 484.695312 108.683594 L 456.707031 112.710938 L 456.707031 119.792969 L 459.597656 120.28125 C 467.164062 121.378906 469.402344 123.492188 469.402344 128.78125 L 469.402344 171.210938 C 469.402344 189.191406 479.570312 197.734375 495.761719 197.734375 C 508.128906 197.734375 518.257812 191.144531 525.867188 181.992188 L 525.050781 197.734375 L 525.011719 197.734375 Z M 443.730469 140.457031 C 443.730469 117.472656 431.527344 108.644531 409.476562 108.644531 C 390.03125 108.644531 375.914062 116.699219 375.914062 130.042969 C 375.914062 134.03125 377.339844 137.082031 380.226562 139.195312 L 395.035156 137.242188 C 394.382812 132.769531 394.058594 130.042969 394.058594 128.902344 C 394.058594 121.335938 398.085938 117.511719 406.261719 117.511719 C 418.347656 117.511719 424.449219 126.015625 424.449219 139.683594 L 424.449219 144.160156 L 393.9375 153.3125 C 383.765625 156.078125 377.988281 158.480469 374.125 164.09375 C 372.089844 167.511719 371.074219 171.496094 371.277344 175.484375 C 371.277344 188.5 380.226562 197.695312 395.523438 197.695312 C 406.589844 197.695312 416.394531 192.691406 424.9375 183.214844 C 427.988281 192.691406 432.664062 197.695312 441.003906 197.695312 C 447.757812 197.695312 453.859375 194.96875 459.3125 189.640625 L 457.683594 184.027344 C 455.324219 184.675781 453.046875 185.003906 450.648438 185.003906 C 445.96875 185.003906 443.730469 181.300781 443.730469 174.058594 Z M 404.675781 184.675781 C 396.335938 184.675781 391.171875 179.835938 391.171875 171.335938 C 391.171875 165.558594 393.894531 162.179688 399.714844 160.226562 L 424.449219 152.375 L 424.449219 176.132812 C 416.554688 182.113281 411.917969 184.675781 404.675781 184.675781 Z M 662.1875 192.082031 L 662.1875 184.839844 L 658 184.515625 C 651.082031 183.863281 649.332031 182.441406 649.332031 176.785156 L 649.332031 79.71875 L 650.148438 65.886719 L 644.328125 65.886719 L 618.617188 73.617188 L 618.617188 77.808594 L 630.011719 83.097656 L 630.011719 114.910156 C 623.582031 110.515625 615.933594 108.320312 608.164062 108.644531 C 582.617188 108.644531 562.683594 128.089844 562.683594 157.175781 C 562.683594 181.136719 577.003906 197.695312 600.597656 197.695312 C 612.800781 197.695312 623.417969 191.757812 630.011719 182.5625 L 629.195312 197.695312 L 632.613281 197.695312 Z M 608.652344 118.285156 C 620.855469 118.285156 630.011719 125.363281 630.011719 138.382812 L 630.011719 174.996094 C 624.394531 180.609375 616.746094 183.660156 608.816406 183.539062 C 591.320312 183.539062 582.453125 169.707031 582.453125 151.238281 C 582.453125 130.492188 592.582031 118.285156 608.652344 118.285156 Z M 724.714844 136.59375 C 722.4375 125.851562 715.847656 119.75 706.695312 119.75 C 693.023438 119.75 683.546875 130.042969 683.546875 144.808594 C 683.546875 166.65625 695.101562 180.8125 713.773438 180.8125 C 726.222656 180.691406 737.691406 173.9375 743.835938 163.117188 L 749.285156 164.582031 C 746.847656 183.539062 729.679688 197.695312 708.605469 197.695312 C 683.871094 197.695312 666.828125 179.390625 666.828125 153.351562 C 666.828125 127.316406 685.335938 108.644531 710.070312 108.644531 C 728.539062 108.644531 741.558594 119.75 745.746094 139.035156 L 681.308594 158.804688 L 681.308594 150.097656 L 724.714844 136.632812 Z M 724.714844 136.59375 " fill-opacity="1" fill-rule="nonzero"/></g></svg>