<svg xmlns="http://www.w3.org/2000/svg" xmlns:xlink="http://www.w3.org/1999/xlink" width="1000" zoomAndPan="magnify" viewBox="0 0 750 749.999995" height="1000" preserveAspectRatio="xMidYMid meet" version="1.0"><defs><clipPath id="6ca7890d1e"><path d="M 73.636719 624 L 459 624 L 459 750 L 73.636719 750 Z M 73.636719 624 " clip-rule="nonzero"/></clipPath><clipPath id="a901971760"><path d="M 627 659 L 675.136719 659 L 675.136719 722 L 627 722 Z M 627 659 " clip-rule="nonzero"/></clipPath></defs><path fill="#3c8bd9" d="M 279.605469 68.574219 C 285.363281 53.46875 293.273438 39.5625 305.023438 28.292969 C 352.015625 -17.503906 429.703125 -5.996094 461.59375 51.550781 C 485.570312 95.1875 510.984375 137.867188 535.679688 181.027344 C 576.921875 252.71875 618.640625 324.410156 659.402344 396.339844 C 693.6875 456.523438 656.523438 532.527344 588.429688 542.839844 C 546.710938 549.074219 507.628906 529.890625 486.046875 492.488281 C 449.84375 429.429688 413.398438 366.367188 377.191406 303.546875 C 376.472656 302.109375 375.515625 300.910156 374.554688 299.710938 C 370.71875 296.59375 369.042969 292.039062 366.644531 287.964844 C 350.578125 259.671875 334.035156 231.617188 317.96875 203.566406 C 307.660156 185.34375 296.871094 167.359375 286.558594 149.136719 C 277.210938 132.832031 272.894531 115.089844 273.371094 96.386719 C 274.09375 86.796875 275.292969 77.207031 279.605469 68.574219 " fill-opacity="1" fill-rule="nonzero"/><path fill="#fabc04" d="M 279.605469 68.574219 C 277.449219 77.207031 275.53125 85.835938 275.050781 94.949219 C 274.332031 115.089844 279.367188 133.792969 289.4375 151.292969 C 315.8125 196.609375 342.1875 242.167969 368.320312 287.722656 C 370.71875 291.800781 372.636719 295.875 375.035156 299.710938 C 360.648438 324.648438 346.261719 349.34375 331.636719 374.28125 C 311.496094 409.046875 291.355469 444.054688 270.976562 478.820312 C 270.015625 478.820312 269.777344 478.339844 269.535156 477.621094 C 269.296875 475.703125 270.015625 474.023438 270.496094 472.105469 C 280.328125 436.140625 272.175781 404.253906 247.476562 376.917969 C 232.371094 360.375 213.191406 351.023438 191.132812 347.90625 C 162.359375 343.828125 136.945312 351.261719 114.164062 369.246094 C 110.089844 372.363281 107.453125 376.917969 102.65625 379.316406 C 101.699219 379.316406 101.21875 378.835938 100.976562 378.117188 C 112.488281 358.214844 123.757812 338.316406 135.265625 318.414062 C 182.738281 235.933594 230.214844 153.453125 277.929688 71.210938 C 278.40625 70.253906 279.128906 69.535156 279.605469 68.574219 " fill-opacity="1" fill-rule="nonzero"/><path fill="#34a852" d="M 101.9375 378.835938 C 106.492188 374.761719 110.808594 370.445312 115.605469 366.609375 C 173.867188 320.574219 261.382812 353.898438 274.09375 426.789062 C 277.210938 444.292969 275.53125 461.078125 270.257812 477.859375 C 270.015625 479.300781 269.777344 480.5 269.296875 481.9375 C 267.140625 485.773438 265.222656 489.851562 262.824219 493.6875 C 241.484375 528.933594 210.074219 546.433594 168.832031 543.796875 C 121.597656 540.441406 84.433594 504.957031 77.960938 457.960938 C 74.84375 435.183594 79.398438 413.84375 91.148438 394.179688 C 93.546875 389.867188 96.421875 386.03125 99.058594 381.714844 C 100.257812 380.753906 99.78125 378.835938 101.9375 378.835938 " fill-opacity="1" fill-rule="nonzero"/><path fill="#fabc04" d="M 101.9375 378.835938 C 100.976562 379.796875 100.976562 381.472656 99.300781 381.714844 C 99.058594 380.035156 100.019531 379.074219 100.976562 377.878906 L 101.9375 378.835938 " fill-opacity="1" fill-rule="nonzero"/><path fill="#e1c025" d="M 269.296875 481.9375 C 268.335938 480.257812 269.296875 479.058594 270.257812 477.859375 C 270.496094 478.101562 270.976562 478.582031 271.214844 478.820312 L 269.296875 481.9375 " fill-opacity="1" fill-rule="nonzero"/><g clip-path="url(#6ca7890d1e)"><path fill="#e1e1e1" d="M 123.277344 624.359375 C 96.183594 624.359375 73.644531 646.179688 73.644531 673.035156 C 73.644531 699.886719 96.183594 721.46875 123.277344 721.46875 C 137.902344 721.46875 148.691406 716.671875 157.324219 707.800781 C 166.195312 698.929688 168.832031 686.699219 168.832031 676.871094 C 168.832031 673.753906 168.59375 670.875 168.113281 668.476562 L 123.277344 668.476562 L 123.277344 681.664062 L 155.167969 681.664062 C 154.207031 689.097656 151.808594 694.613281 147.972656 698.449219 C 143.417969 703.003906 135.984375 708.28125 123.277344 708.28125 C 103.617188 708.28125 88.269531 692.457031 88.269531 673.035156 C 88.269531 653.613281 103.617188 637.789062 123.277344 637.789062 C 133.828125 637.789062 141.738281 641.863281 147.253906 647.378906 L 156.605469 638.027344 C 148.691406 630.355469 138.144531 624.359375 123.277344 624.359375 Z M 204.558594 659.128906 C 187.535156 659.128906 173.390625 672.316406 173.390625 690.777344 C 173.390625 709 187.296875 722.425781 204.558594 722.425781 C 221.824219 722.425781 235.730469 709 235.730469 690.777344 C 235.730469 672.554688 221.582031 659.128906 204.558594 659.128906 M 204.558594 709.957031 C 195.207031 709.957031 187.054688 702.046875 187.054688 690.777344 C 187.054688 679.507812 195.207031 671.59375 204.558594 671.59375 C 213.910156 671.59375 222.0625 679.269531 222.0625 690.777344 C 222.0625 702.046875 213.910156 709.957031 204.558594 709.957031 M 272.175781 659.128906 C 254.910156 659.128906 241.003906 672.316406 241.003906 690.777344 C 241.003906 709 254.910156 722.425781 272.175781 722.425781 C 289.199219 722.425781 303.34375 709 303.34375 690.777344 C 303.34375 672.554688 289.4375 659.128906 272.175781 659.128906 M 272.175781 709.957031 C 262.824219 709.957031 254.671875 702.046875 254.671875 690.777344 C 254.671875 679.507812 262.824219 671.59375 272.175781 671.59375 C 281.523438 671.59375 289.675781 679.269531 289.675781 690.777344 C 289.675781 702.046875 281.765625 709.957031 272.175781 709.957031 M 339.550781 659.128906 C 323.964844 659.128906 309.816406 672.792969 309.816406 690.539062 C 309.816406 708.039062 323.964844 721.707031 339.550781 721.707031 C 346.980469 721.707031 352.738281 718.351562 355.855469 714.515625 L 356.332031 714.515625 L 356.332031 719.070312 C 356.332031 731.058594 350.097656 737.53125 339.789062 737.53125 C 331.398438 737.53125 326.363281 731.539062 324.203125 726.503906 L 312.214844 731.539062 C 315.574219 739.929688 324.683594 750 339.789062 750 C 355.855469 750 369.28125 740.410156 369.28125 717.390625 L 369.28125 661.285156 L 356.332031 661.285156 L 356.332031 666.320312 L 355.855469 666.320312 C 352.738281 662.484375 346.980469 659.128906 339.550781 659.128906 M 340.75 709.480469 C 331.398438 709.480469 323.484375 701.566406 323.484375 690.539062 C 323.484375 679.507812 331.398438 671.355469 340.75 671.355469 C 350.097656 671.355469 357.292969 679.507812 357.292969 690.539062 C 357.292969 701.566406 350.097656 709.480469 340.75 709.480469 M 379.351562 628.195312 L 393.019531 628.195312 L 393.019531 720.75 L 379.351562 720.75 Z M 429.703125 659.128906 C 413.398438 659.128906 399.730469 671.835938 399.730469 690.777344 C 399.730469 708.519531 413.160156 722.425781 431.140625 722.425781 C 445.765625 722.425781 454.160156 713.554688 457.515625 708.519531 L 446.726562 701.328125 C 443.128906 706.601562 438.09375 709.957031 431.140625 709.957031 C 423.949219 709.957031 418.914062 706.839844 415.796875 700.367188 L 458.234375 682.863281 L 456.796875 679.269531 C 454.160156 672.316406 446.007812 659.128906 429.703125 659.128906 M 413.398438 689.816406 C 412.917969 677.589844 422.988281 671.355469 429.941406 671.355469 C 435.457031 671.355469 440.253906 673.992188 441.691406 678.070312 Z M 413.398438 689.816406 " fill-opacity="1" fill-rule="nonzero"/></g><path fill="#e1e1e1" d="M 482.210938 719.308594 L 513.863281 635.148438 L 526.089844 635.148438 L 557.738281 719.308594 L 545.75 719.308594 L 537.597656 696.53125 L 502.351562 696.53125 L 494.199219 719.308594 Z M 505.949219 686.460938 L 534.003906 686.460938 L 520.335938 648.578125 L 519.855469 648.578125 Z M 505.949219 686.460938 " fill-opacity="1" fill-rule="nonzero"/><path fill="#e1e1e1" d="M 568.769531 712.355469 C 563.496094 706.363281 560.855469 699.167969 560.855469 690.539062 C 560.855469 682.144531 563.496094 674.953125 568.769531 668.71875 C 574.285156 662.722656 580.519531 659.847656 588.191406 659.847656 C 592.507812 659.847656 596.34375 660.804688 599.699219 662.484375 C 603.296875 664.402344 605.933594 666.558594 607.851562 669.675781 L 608.332031 669.675781 L 607.851562 661.765625 L 607.851562 635.148438 L 618.640625 635.148438 L 618.640625 719.308594 L 608.332031 719.308594 L 608.332031 711.398438 L 607.851562 711.398438 C 605.933594 714.273438 603.296875 716.671875 599.699219 718.589844 C 596.101562 720.507812 592.265625 721.226562 588.191406 721.226562 C 580.519531 721.226562 574.042969 718.351562 568.769531 712.355469 M 602.816406 705.644531 C 606.414062 701.804688 608.089844 696.769531 608.089844 690.539062 C 608.089844 684.542969 606.414062 679.507812 602.816406 675.671875 C 599.460938 671.835938 595.144531 669.917969 589.867188 669.917969 C 584.59375 669.917969 580.277344 671.835938 576.921875 675.671875 C 573.324219 679.507812 571.648438 684.542969 571.648438 690.539062 C 571.648438 696.53125 573.324219 701.566406 576.921875 705.402344 C 580.519531 709.238281 584.832031 711.15625 589.867188 711.15625 C 595.144531 711.398438 599.460938 709.480469 602.816406 705.644531 " fill-opacity="1" fill-rule="nonzero"/><g clip-path="url(#a901971760)"><path fill="#e1e1e1" d="M 668.511719 715.953125 C 664.199219 719.308594 658.683594 721.226562 651.96875 721.226562 C 646.214844 721.226562 641.179688 719.789062 636.625 716.671875 C 632.308594 713.554688 629.191406 709.71875 627.273438 704.683594 L 636.863281 700.609375 C 638.300781 703.964844 640.222656 706.839844 643.097656 708.757812 C 645.734375 710.679688 648.851562 711.636719 651.96875 711.636719 C 655.328125 711.636719 658.203125 710.917969 660.601562 709.480469 C 663 708.039062 663.957031 706.121094 663.957031 704.203125 C 663.957031 700.609375 661.082031 697.730469 655.566406 696.050781 L 645.734375 693.652344 C 634.464844 690.777344 628.953125 685.503906 628.953125 677.351562 C 628.953125 672.074219 631.109375 668 635.425781 664.640625 C 639.742188 661.523438 645.257812 659.847656 651.730469 659.847656 C 656.765625 659.847656 661.320312 661.046875 665.636719 663.441406 C 669.710938 665.839844 672.589844 669.199219 674.269531 673.273438 L 664.675781 677.351562 C 663.480469 674.953125 661.800781 673.035156 659.402344 671.59375 C 657.003906 670.15625 654.128906 669.4375 651.011719 669.4375 C 648.132812 669.4375 645.734375 670.15625 643.335938 671.59375 C 641.179688 673.035156 639.980469 674.710938 639.980469 676.871094 C 639.980469 680.226562 643.097656 682.625 649.332031 683.824219 L 657.964844 685.980469 C 669.472656 688.859375 674.988281 694.613281 674.988281 703.246094 C 675.226562 708.28125 672.828125 712.597656 668.511719 715.953125 " fill-opacity="1" fill-rule="nonzero"/></g></svg>