<svg xmlns="http://www.w3.org/2000/svg" xmlns:xlink="http://www.w3.org/1999/xlink" width="1000" zoomAndPan="magnify" viewBox="0 0 750 262.499992" height="350" preserveAspectRatio="xMidYMid meet" version="1.0"><defs><clipPath id="73f840888f"><path d="M 0.714844 56 L 749.285156 56 L 749.285156 234 L 0.714844 234 Z M 0.714844 56 " clip-rule="nonzero"/></clipPath><clipPath id="7c6f7f5a6b"><path d="M 481 21.539062 L 682 21.539062 L 682 231 L 481 231 Z M 481 21.539062 " clip-rule="nonzero"/></clipPath></defs><g clip-path="url(#73f840888f)"><path fill="#ffffff" d="M 81.800781 56.664062 L 81.800781 116.511719 L 26.816406 116.511719 L 26.816406 56.664062 L 0.734375 56.664062 L 0.734375 199.527344 L 26.824219 199.527344 L 26.824219 141.621094 L 81.792969 141.621094 L 81.792969 199.527344 L 107.894531 199.527344 L 107.894531 56.664062 Z M 191.410156 153.351562 C 191.410156 154.058594 191.375 154.765625 191.308594 155.46875 C 191.238281 156.171875 191.132812 156.871094 190.996094 157.5625 C 190.859375 158.257812 190.6875 158.941406 190.480469 159.621094 C 190.277344 160.296875 190.039062 160.960938 189.769531 161.613281 C 189.496094 162.269531 189.195312 162.90625 188.863281 163.53125 C 188.527344 164.152344 188.164062 164.757812 187.773438 165.347656 C 187.378906 165.933594 186.957031 166.503906 186.511719 167.050781 C 186.0625 167.597656 185.585938 168.117188 185.085938 168.617188 C 184.585938 169.117188 184.0625 169.59375 183.515625 170.042969 C 182.972656 170.492188 182.402344 170.910156 181.816406 171.304688 C 181.226562 171.695312 180.621094 172.058594 180 172.394531 C 179.375 172.726562 178.734375 173.027344 178.082031 173.300781 C 177.429688 173.570312 176.765625 173.808594 176.085938 174.011719 C 175.410156 174.21875 174.726562 174.390625 174.03125 174.527344 C 173.339844 174.664062 172.640625 174.769531 171.9375 174.839844 C 171.234375 174.910156 170.527344 174.941406 169.820312 174.941406 C 169.113281 174.941406 168.40625 174.910156 167.703125 174.839844 C 167 174.769531 166.300781 174.664062 165.609375 174.527344 C 164.914062 174.390625 164.230469 174.21875 163.550781 174.011719 C 162.875 173.808594 162.210938 173.570312 161.558594 173.300781 C 160.90625 173.027344 160.265625 172.726562 159.640625 172.394531 C 159.019531 172.058594 158.414062 171.695312 157.824219 171.304688 C 157.238281 170.910156 156.667969 170.492188 156.121094 170.042969 C 155.578125 169.59375 155.054688 169.117188 154.554688 168.617188 C 154.054688 168.117188 153.578125 167.597656 153.128906 167.050781 C 152.679688 166.503906 152.261719 165.933594 151.867188 165.347656 C 151.476562 164.757812 151.113281 164.152344 150.777344 163.53125 C 150.445312 162.90625 150.144531 162.269531 149.871094 161.613281 C 149.601562 160.960938 149.363281 160.296875 149.160156 159.621094 C 148.953125 158.941406 148.78125 158.257812 148.644531 157.5625 C 148.507812 156.871094 148.402344 156.171875 148.332031 155.46875 C 148.265625 154.765625 148.230469 154.058594 148.230469 153.351562 L 148.230469 92.15625 L 123.476562 92.15625 L 123.476562 153.351562 C 123.476562 154.867188 123.550781 156.378906 123.699219 157.890625 C 123.851562 159.398438 124.070312 160.898438 124.367188 162.382812 C 124.664062 163.871094 125.03125 165.339844 125.472656 166.789062 C 125.910156 168.242188 126.421875 169.667969 127.003906 171.070312 C 127.582031 172.46875 128.230469 173.839844 128.945312 175.175781 C 129.660156 176.511719 130.4375 177.8125 131.28125 179.074219 C 132.121094 180.332031 133.023438 181.550781 133.988281 182.722656 C 134.949219 183.894531 135.964844 185.015625 137.039062 186.089844 C 138.109375 187.160156 139.230469 188.175781 140.40625 189.140625 C 141.578125 190.101562 142.792969 191.003906 144.054688 191.847656 C 145.3125 192.6875 146.613281 193.464844 147.949219 194.179688 C 149.289062 194.894531 150.65625 195.542969 152.058594 196.125 C 153.457031 196.703125 154.882812 197.214844 156.335938 197.65625 C 157.785156 198.09375 159.253906 198.460938 160.742188 198.757812 C 162.230469 199.054688 163.726562 199.277344 165.238281 199.425781 C 166.746094 199.574219 168.257812 199.648438 169.773438 199.648438 C 171.289062 199.648438 172.804688 199.574219 174.3125 199.425781 C 175.820312 199.277344 177.320312 199.054688 178.804688 198.757812 C 180.292969 198.460938 181.761719 198.09375 183.214844 197.65625 C 184.664062 197.214844 186.089844 196.703125 187.492188 196.125 C 188.890625 195.542969 190.261719 194.894531 191.597656 194.179688 C 192.933594 193.464844 194.234375 192.6875 195.496094 191.847656 C 196.753906 191.003906 197.972656 190.101562 199.144531 189.140625 C 200.316406 188.175781 201.4375 187.160156 202.511719 186.089844 C 203.582031 185.015625 204.601562 183.894531 205.5625 182.722656 C 206.523438 181.550781 207.425781 180.332031 208.269531 179.074219 C 209.109375 177.8125 209.890625 176.511719 210.605469 175.175781 C 211.320312 173.839844 211.964844 172.46875 212.546875 171.070312 C 213.125 169.667969 213.636719 168.242188 214.078125 166.789062 C 214.515625 165.339844 214.886719 163.871094 215.179688 162.382812 C 215.476562 160.898438 215.699219 159.398438 215.847656 157.890625 C 215.996094 156.378906 216.070312 154.867188 216.070312 153.351562 L 216.070312 92.15625 L 191.410156 92.15625 Z M 374.808594 98.460938 C 374.808594 85.914062 383.105469 81.9375 392.195312 81.9375 C 399.523438 81.9375 409.199219 87.515625 415.535156 94.28125 L 431.742188 75.171875 C 423.648438 64.226562 407.238281 56.664062 393.796875 56.664062 C 366.941406 56.664062 347.523438 72.390625 347.523438 98.460938 C 347.523438 146.835938 406.644531 131.480469 406.644531 158.554688 C 406.644531 166.902344 398.535156 174.277344 389.257812 174.277344 C 374.617188 174.277344 369.875 167.121094 363.152344 159.550781 L 345.15625 178.257812 C 356.667969 192.382812 370.863281 199.554688 387.859375 199.554688 C 413.371094 199.554688 433.894531 183.640625 433.894531 158.753906 C 433.894531 105.058594 374.765625 121.742188 374.765625 98.460938 M 740.558594 176.703125 C 725.9375 176.703125 721.777344 170.378906 721.777344 160.6875 L 721.777344 117.789062 L 744.515625 117.789062 L 744.515625 96.054688 L 721.777344 96.054688 L 721.777344 67.375 L 696.679688 78.640625 L 696.679688 166.019531 C 696.679688 188.371094 712.101562 199.632812 733.246094 199.632812 C 736.5625 199.691406 739.882812 199.421875 743.144531 198.84375 L 749.265625 176.300781 C 746.507812 176.492188 743.335938 176.683594 740.558594 176.683594 M 285.628906 92.867188 C 273.367188 92.867188 264.808594 96.429688 256.535156 104.542969 L 256.535156 57.519531 L 231.746094 57.519531 L 231.746094 144.679688 C 231.746094 177.304688 255.332031 199.664062 281.84375 199.664062 C 311.246094 199.664062 337.113281 176.910156 337.113281 146.277344 C 337.113281 116.023438 313.308594 92.890625 285.628906 92.890625 M 285.472656 174.714844 C 284.550781 174.714844 283.632812 174.667969 282.714844 174.578125 C 281.796875 174.488281 280.886719 174.351562 279.984375 174.171875 C 279.082031 173.992188 278.1875 173.769531 277.308594 173.503906 C 276.425781 173.234375 275.558594 172.925781 274.707031 172.570312 C 273.855469 172.21875 273.023438 171.824219 272.210938 171.390625 C 271.398438 170.957031 270.609375 170.484375 269.84375 169.972656 C 269.078125 169.460938 268.339844 168.914062 267.625 168.328125 C 266.914062 167.742188 266.234375 167.125 265.582031 166.472656 C 264.929688 165.824219 264.3125 165.140625 263.726562 164.429688 C 263.144531 163.714844 262.59375 162.976562 262.082031 162.210938 C 261.570312 161.445312 261.097656 160.65625 260.664062 159.84375 C 260.230469 159.03125 259.835938 158.199219 259.484375 157.347656 C 259.132812 156.496094 258.820312 155.628906 258.554688 154.75 C 258.285156 153.867188 258.0625 152.976562 257.882812 152.070312 C 257.703125 151.167969 257.566406 150.257812 257.476562 149.339844 C 257.386719 148.421875 257.34375 147.503906 257.34375 146.582031 C 257.34375 145.660156 257.386719 144.742188 257.476562 143.824219 C 257.566406 142.910156 257.703125 142 257.882812 141.09375 C 258.0625 140.191406 258.285156 139.300781 258.554688 138.417969 C 258.820312 137.535156 259.132812 136.667969 259.484375 135.820312 C 259.835938 134.96875 260.230469 134.136719 260.664062 133.324219 C 261.097656 132.511719 261.570312 131.722656 262.082031 130.953125 C 262.59375 130.1875 263.144531 129.449219 263.726562 128.738281 C 264.3125 128.027344 264.929688 127.34375 265.582031 126.691406 C 266.234375 126.039062 266.914062 125.421875 267.625 124.839844 C 268.339844 124.253906 269.078125 123.707031 269.84375 123.195312 C 270.609375 122.683594 271.398438 122.210938 272.210938 121.773438 C 273.023438 121.339844 273.855469 120.945312 274.707031 120.59375 C 275.558594 120.242188 276.425781 119.933594 277.308594 119.664062 C 278.1875 119.398438 279.082031 119.171875 279.984375 118.992188 C 280.886719 118.8125 281.796875 118.679688 282.714844 118.589844 C 283.632812 118.5 284.550781 118.453125 285.472656 118.453125 C 286.394531 118.453125 287.3125 118.5 288.230469 118.589844 C 289.148438 118.679688 290.058594 118.8125 290.960938 118.992188 C 291.863281 119.171875 292.757812 119.398438 293.636719 119.664062 C 294.519531 119.933594 295.386719 120.242188 296.238281 120.59375 C 297.089844 120.945312 297.921875 121.339844 298.734375 121.773438 C 299.546875 122.210938 300.335938 122.683594 301.101562 123.195312 C 301.867188 123.707031 302.605469 124.253906 303.316406 124.839844 C 304.03125 125.421875 304.710938 126.039062 305.363281 126.691406 C 306.015625 127.34375 306.632812 128.027344 307.21875 128.738281 C 307.800781 129.449219 308.351562 130.1875 308.863281 130.957031 C 309.375 131.722656 309.847656 132.511719 310.28125 133.324219 C 310.714844 134.136719 311.109375 134.96875 311.460938 135.820312 C 311.8125 136.667969 312.125 137.535156 312.390625 138.417969 C 312.660156 139.300781 312.882812 140.191406 313.0625 141.09375 C 313.242188 142 313.375 142.910156 313.46875 143.824219 C 313.558594 144.742188 313.601562 145.660156 313.601562 146.582031 C 313.601562 147.503906 313.558594 148.421875 313.46875 149.339844 C 313.375 150.257812 313.242188 151.167969 313.0625 152.070312 C 312.882812 152.976562 312.660156 153.867188 312.390625 154.75 C 312.125 155.628906 311.8125 156.496094 311.460938 157.347656 C 311.109375 158.199219 310.714844 159.03125 310.28125 159.84375 C 309.847656 160.65625 309.375 161.445312 308.863281 162.210938 C 308.351562 162.976562 307.800781 163.714844 307.21875 164.429688 C 306.632812 165.140625 306.015625 165.824219 305.363281 166.472656 C 304.710938 167.125 304.03125 167.742188 303.316406 168.328125 C 302.605469 168.914062 301.867188 169.460938 301.101562 169.972656 C 300.335938 170.484375 299.546875 170.957031 298.734375 171.390625 C 297.921875 171.824219 297.089844 172.21875 296.238281 172.570312 C 295.386719 172.925781 294.519531 173.234375 293.636719 173.503906 C 292.757812 173.769531 291.863281 173.992188 290.960938 174.171875 C 290.058594 174.351562 289.148438 174.488281 288.230469 174.578125 C 287.3125 174.667969 286.394531 174.714844 285.472656 174.714844 M 554.816406 144.976562 C 554.816406 114.285156 529.007812 91.589844 499.546875 91.589844 C 473.042969 91.589844 449.449219 113.941406 449.449219 146.574219 L 449.449219 233.785156 L 474.238281 233.785156 L 474.238281 186.695312 C 482.5 194.796875 491.074219 198.371094 503.316406 198.371094 C 531 198.371094 554.8125 175.234375 554.8125 144.976562 M 531.34375 144.667969 C 531.34375 145.585938 531.300781 146.507812 531.210938 147.421875 C 531.121094 148.339844 530.984375 149.25 530.804688 150.152344 C 530.625 151.058594 530.402344 151.949219 530.132812 152.832031 C 529.867188 153.714844 529.554688 154.578125 529.203125 155.429688 C 528.851562 156.28125 528.457031 157.113281 528.023438 157.925781 C 527.589844 158.738281 527.117188 159.527344 526.605469 160.292969 C 526.09375 161.058594 525.542969 161.800781 524.960938 162.511719 C 524.375 163.222656 523.757812 163.90625 523.105469 164.558594 C 522.453125 165.207031 521.773438 165.828125 521.058594 166.410156 C 520.347656 166.996094 519.609375 167.542969 518.84375 168.054688 C 518.078125 168.566406 517.289062 169.039062 516.476562 169.472656 C 515.664062 169.910156 514.832031 170.300781 513.980469 170.65625 C 513.128906 171.007812 512.261719 171.316406 511.378906 171.585938 C 510.5 171.851562 509.605469 172.074219 508.703125 172.253906 C 507.800781 172.433594 506.890625 172.570312 505.972656 172.660156 C 505.054688 172.75 504.136719 172.796875 503.214844 172.796875 C 502.292969 172.796875 501.375 172.75 500.457031 172.660156 C 499.539062 172.570312 498.628906 172.433594 497.726562 172.253906 C 496.824219 172.074219 495.929688 171.851562 495.050781 171.585938 C 494.167969 171.316406 493.300781 171.007812 492.449219 170.65625 C 491.597656 170.300781 490.765625 169.910156 489.953125 169.472656 C 489.140625 169.039062 488.351562 168.566406 487.585938 168.054688 C 486.820312 167.542969 486.082031 166.996094 485.371094 166.410156 C 484.65625 165.828125 483.976562 165.207031 483.324219 164.558594 C 482.671875 163.90625 482.054688 163.222656 481.46875 162.511719 C 480.886719 161.800781 480.335938 161.058594 479.824219 160.292969 C 479.3125 159.527344 478.839844 158.738281 478.40625 157.925781 C 477.972656 157.113281 477.578125 156.28125 477.226562 155.429688 C 476.875 154.578125 476.5625 153.714844 476.296875 152.832031 C 476.027344 151.949219 475.804688 151.058594 475.625 150.152344 C 475.445312 149.25 475.3125 148.339844 475.21875 147.421875 C 475.128906 146.507812 475.085938 145.585938 475.085938 144.667969 C 475.085938 143.746094 475.128906 142.824219 475.21875 141.910156 C 475.3125 140.992188 475.445312 140.082031 475.625 139.179688 C 475.804688 138.273438 476.027344 137.382812 476.296875 136.5 C 476.5625 135.617188 476.875 134.753906 477.226562 133.902344 C 477.578125 133.050781 477.972656 132.21875 478.40625 131.40625 C 478.839844 130.59375 479.3125 129.804688 479.824219 129.039062 C 480.335938 128.273438 480.886719 127.53125 481.46875 126.820312 C 482.054688 126.109375 482.671875 125.425781 483.324219 124.773438 C 483.976562 124.125 484.65625 123.503906 485.371094 122.921875 C 486.082031 122.335938 486.820312 121.789062 487.585938 121.277344 C 488.351562 120.765625 489.140625 120.292969 489.953125 119.859375 C 490.765625 119.421875 491.597656 119.03125 492.449219 118.675781 C 493.300781 118.324219 494.167969 118.015625 495.050781 117.746094 C 495.929688 117.480469 496.824219 117.257812 497.726562 117.078125 C 498.628906 116.898438 499.539062 116.761719 500.457031 116.671875 C 501.375 116.582031 502.292969 116.535156 503.214844 116.535156 C 504.136719 116.535156 505.054688 116.582031 505.972656 116.671875 C 506.890625 116.761719 507.800781 116.898438 508.703125 117.078125 C 509.605469 117.257812 510.5 117.480469 511.378906 117.746094 C 512.261719 118.015625 513.128906 118.324219 513.980469 118.675781 C 514.832031 119.03125 515.664062 119.421875 516.476562 119.859375 C 517.289062 120.292969 518.078125 120.765625 518.84375 121.277344 C 519.609375 121.789062 520.347656 122.335938 521.058594 122.921875 C 521.773438 123.503906 522.453125 124.125 523.105469 124.773438 C 523.757812 125.425781 524.375 126.109375 524.960938 126.820312 C 525.542969 127.53125 526.09375 128.273438 526.605469 129.039062 C 527.117188 129.804688 527.589844 130.59375 528.023438 131.40625 C 528.457031 132.21875 528.851562 133.050781 529.203125 133.902344 C 529.554688 134.753906 529.867188 135.617188 530.132812 136.5 C 530.402344 137.382812 530.625 138.273438 530.804688 139.179688 C 530.984375 140.082031 531.121094 140.992188 531.210938 141.910156 C 531.300781 142.824219 531.34375 143.746094 531.34375 144.667969 " fill-opacity="1" fill-rule="nonzero"/></g><g clip-path="url(#7c6f7f5a6b)"><path fill="#ff7a59" d="M 634.910156 90.390625 L 634.910156 65.484375 C 635.730469 65.101562 636.515625 64.664062 637.273438 64.167969 C 638.03125 63.675781 638.75 63.128906 639.429688 62.535156 C 640.109375 61.9375 640.742188 61.296875 641.332031 60.613281 C 641.921875 59.929688 642.460938 59.203125 642.945312 58.445312 C 643.433594 57.683594 643.863281 56.890625 644.238281 56.070312 C 644.613281 55.246094 644.929688 54.402344 645.1875 53.535156 C 645.441406 52.667969 645.636719 51.789062 645.765625 50.894531 C 645.898438 50 645.964844 49.101562 645.96875 48.195312 L 645.96875 47.625 C 645.96875 37.03125 637.382812 28.445312 626.789062 28.445312 L 626.21875 28.445312 C 625.589844 28.445312 624.964844 28.476562 624.339844 28.539062 C 623.714844 28.597656 623.09375 28.691406 622.476562 28.8125 C 621.859375 28.9375 621.25 29.089844 620.652344 29.269531 C 620.050781 29.453125 619.457031 29.664062 618.878906 29.90625 C 618.296875 30.144531 617.730469 30.414062 617.175781 30.710938 C 616.625 31.007812 616.085938 31.328125 615.5625 31.679688 C 615.039062 32.027344 614.535156 32.402344 614.050781 32.800781 C 613.566406 33.199219 613.101562 33.617188 612.65625 34.0625 C 612.210938 34.507812 611.789062 34.972656 611.390625 35.457031 C 610.992188 35.941406 610.621094 36.445312 610.269531 36.96875 C 609.921875 37.492188 609.597656 38.03125 609.304688 38.582031 C 609.007812 39.136719 608.738281 39.703125 608.5 40.285156 C 608.257812 40.867188 608.046875 41.457031 607.863281 42.058594 C 607.683594 42.660156 607.53125 43.265625 607.40625 43.882812 C 607.285156 44.5 607.191406 45.121094 607.132812 45.746094 C 607.070312 46.371094 607.039062 46.996094 607.039062 47.625 L 607.039062 48.195312 C 607.042969 49.101562 607.109375 50 607.242188 50.894531 C 607.375 51.789062 607.566406 52.667969 607.824219 53.535156 C 608.078125 54.402344 608.394531 55.246094 608.769531 56.070312 C 609.144531 56.890625 609.574219 57.683594 610.0625 58.445312 C 610.546875 59.203125 611.085938 59.929688 611.675781 60.613281 C 612.265625 61.296875 612.898438 61.9375 613.578125 62.535156 C 614.257812 63.128906 614.976562 63.675781 615.734375 64.167969 C 616.492188 64.664062 617.277344 65.101562 618.097656 65.484375 L 618.097656 90.390625 C 613.367188 91.113281 608.8125 92.441406 604.433594 94.367188 C 600.054688 96.296875 596 98.761719 592.273438 101.757812 L 523.964844 48.558594 C 524.453125 46.796875 524.707031 44.992188 524.734375 43.175781 C 524.738281 42.46875 524.703125 41.761719 524.636719 41.058594 C 524.566406 40.351562 524.464844 39.652344 524.328125 38.960938 C 524.191406 38.265625 524.019531 37.578125 523.816406 36.902344 C 523.613281 36.222656 523.375 35.558594 523.105469 34.902344 C 522.835938 34.246094 522.535156 33.609375 522.203125 32.984375 C 521.871094 32.359375 521.507812 31.75 521.117188 31.164062 C 520.722656 30.574219 520.304688 30.003906 519.855469 29.457031 C 519.40625 28.910156 518.933594 28.382812 518.433594 27.882812 C 517.933594 27.382812 517.410156 26.90625 516.867188 26.457031 C 516.320312 26.003906 515.753906 25.582031 515.164062 25.1875 C 514.578125 24.792969 513.972656 24.429688 513.347656 24.09375 C 512.722656 23.761719 512.085938 23.457031 511.433594 23.183594 C 510.777344 22.914062 510.113281 22.671875 509.4375 22.464844 C 508.757812 22.261719 508.074219 22.085938 507.378906 21.949219 C 506.6875 21.808594 505.988281 21.703125 505.28125 21.632812 C 504.578125 21.5625 503.871094 21.527344 503.164062 21.523438 C 502.457031 21.523438 501.75 21.558594 501.046875 21.625 C 500.339844 21.695312 499.640625 21.796875 498.949219 21.933594 C 498.253906 22.070312 497.566406 22.242188 496.890625 22.445312 C 496.210938 22.648438 495.546875 22.886719 494.890625 23.15625 C 494.238281 23.425781 493.597656 23.726562 492.972656 24.058594 C 492.347656 24.390625 491.742188 24.753906 491.152344 25.148438 C 490.5625 25.539062 489.992188 25.960938 489.445312 26.40625 C 488.898438 26.855469 488.375 27.328125 487.871094 27.828125 C 487.371094 28.328125 486.894531 28.851562 486.445312 29.398438 C 485.996094 29.945312 485.574219 30.511719 485.179688 31.101562 C 484.785156 31.6875 484.421875 32.292969 484.085938 32.917969 C 483.75 33.539062 483.449219 34.179688 483.175781 34.832031 C 482.902344 35.488281 482.664062 36.152344 482.457031 36.828125 C 482.25 37.503906 482.078125 38.191406 481.941406 38.886719 C 481.800781 39.578125 481.695312 40.277344 481.625 40.984375 C 481.554688 41.6875 481.519531 42.394531 481.519531 43.101562 C 481.515625 43.808594 481.550781 44.515625 481.617188 45.21875 C 481.6875 45.921875 481.789062 46.625 481.925781 47.316406 C 482.0625 48.011719 482.234375 48.699219 482.4375 49.375 C 482.644531 50.054688 482.878906 50.71875 483.152344 51.375 C 483.421875 52.027344 483.722656 52.667969 484.054688 53.292969 C 484.386719 53.917969 484.75 54.523438 485.140625 55.113281 C 485.535156 55.703125 485.953125 56.269531 486.402344 56.816406 C 486.851562 57.367188 487.324219 57.890625 487.824219 58.390625 C 488.324219 58.894531 488.847656 59.367188 489.394531 59.816406 C 489.941406 60.269531 490.507812 60.691406 491.097656 61.082031 C 491.683594 61.476562 492.289062 61.84375 492.914062 62.175781 C 493.539062 62.511719 494.175781 62.8125 494.832031 63.085938 C 495.484375 63.359375 496.148438 63.597656 496.824219 63.804688 C 497.503906 64.011719 498.1875 64.183594 498.882812 64.320312 C 499.578125 64.460938 500.277344 64.566406 500.980469 64.636719 C 501.683594 64.707031 502.390625 64.742188 503.097656 64.742188 C 506.902344 64.722656 510.449219 63.757812 513.742188 61.847656 L 581.003906 114.1875 C 580.253906 115.320312 579.546875 116.480469 578.882812 117.667969 C 578.21875 118.851562 577.601562 120.0625 577.027344 121.292969 C 576.457031 122.527344 575.929688 123.777344 575.449219 125.050781 C 574.972656 126.320312 574.539062 127.609375 574.15625 128.910156 C 573.773438 130.214844 573.441406 131.53125 573.15625 132.859375 C 572.871094 134.191406 572.636719 135.527344 572.453125 136.875 C 572.269531 138.21875 572.136719 139.570312 572.054688 140.925781 C 571.96875 142.285156 571.9375 143.640625 571.957031 145 C 571.976562 146.359375 572.042969 147.714844 572.164062 149.066406 C 572.285156 150.421875 572.453125 151.769531 572.675781 153.109375 C 572.894531 154.449219 573.167969 155.78125 573.488281 157.101562 C 573.808594 158.421875 574.175781 159.726562 574.59375 161.019531 C 575.011719 162.3125 575.476562 163.589844 575.992188 164.847656 C 576.503906 166.105469 577.0625 167.34375 577.671875 168.558594 C 578.277344 169.773438 578.925781 170.964844 579.621094 172.132812 C 580.316406 173.300781 581.054688 174.441406 581.835938 175.554688 L 561.378906 196.019531 C 559.714844 195.488281 558.011719 195.207031 556.265625 195.183594 C 555.683594 195.1875 555.105469 195.214844 554.527344 195.273438 C 553.949219 195.328125 553.375 195.414062 552.804688 195.527344 C 552.234375 195.640625 551.671875 195.785156 551.117188 195.953125 C 550.558594 196.121094 550.015625 196.316406 549.476562 196.539062 C 548.941406 196.761719 548.417969 197.011719 547.90625 197.285156 C 547.390625 197.558594 546.894531 197.859375 546.410156 198.183594 C 545.929688 198.503906 545.464844 198.851562 545.015625 199.21875 C 544.566406 199.589844 544.136719 199.976562 543.726562 200.390625 C 543.3125 200.800781 542.925781 201.230469 542.554688 201.679688 C 542.1875 202.128906 541.84375 202.59375 541.519531 203.078125 C 541.199219 203.5625 540.898438 204.058594 540.625 204.574219 C 540.351562 205.085938 540.105469 205.609375 539.882812 206.148438 C 539.660156 206.683594 539.464844 207.230469 539.296875 207.785156 C 539.128906 208.34375 538.988281 208.90625 538.875 209.476562 C 538.761719 210.042969 538.675781 210.617188 538.617188 211.195312 C 538.5625 211.773438 538.535156 212.355469 538.535156 212.9375 C 538.535156 213.515625 538.5625 214.097656 538.621094 214.675781 C 538.675781 215.253906 538.761719 215.828125 538.875 216.398438 C 538.988281 216.964844 539.128906 217.53125 539.296875 218.085938 C 539.46875 218.640625 539.664062 219.1875 539.886719 219.722656 C 540.109375 220.261719 540.355469 220.785156 540.628906 221.296875 C 540.902344 221.808594 541.203125 222.308594 541.523438 222.792969 C 541.847656 223.273438 542.195312 223.742188 542.5625 224.1875 C 542.929688 224.636719 543.320312 225.070312 543.730469 225.480469 C 544.140625 225.890625 544.570312 226.28125 545.019531 226.648438 C 545.46875 227.015625 545.9375 227.363281 546.417969 227.6875 C 546.902344 228.007812 547.398438 228.308594 547.914062 228.582031 C 548.425781 228.855469 548.949219 229.101562 549.488281 229.324219 C 550.023438 229.546875 550.570312 229.742188 551.125 229.910156 C 551.679688 230.082031 552.246094 230.222656 552.8125 230.335938 C 553.382812 230.449219 553.957031 230.535156 554.535156 230.589844 C 555.113281 230.648438 555.695312 230.675781 556.273438 230.675781 C 556.855469 230.675781 557.4375 230.648438 558.015625 230.59375 C 558.59375 230.535156 559.167969 230.449219 559.734375 230.335938 C 560.304688 230.222656 560.867188 230.082031 561.425781 229.914062 C 561.980469 229.746094 562.527344 229.550781 563.0625 229.328125 C 563.601562 229.105469 564.125 228.859375 564.636719 228.585938 C 565.152344 228.3125 565.648438 228.011719 566.132812 227.691406 C 566.613281 227.367188 567.082031 227.023438 567.53125 226.65625 C 567.980469 226.285156 568.410156 225.898438 568.820312 225.484375 C 569.230469 225.074219 569.621094 224.644531 569.992188 224.195312 C 570.359375 223.746094 570.707031 223.28125 571.027344 222.800781 C 571.351562 222.316406 571.652344 221.820312 571.925781 221.304688 C 572.199219 220.792969 572.449219 220.269531 572.671875 219.734375 C 572.894531 219.195312 573.089844 218.648438 573.257812 218.09375 C 573.425781 217.539062 573.566406 216.976562 573.683594 216.40625 C 573.796875 215.835938 573.882812 215.261719 573.9375 214.683594 C 573.996094 214.105469 574.023438 213.527344 574.027344 212.945312 C 574.003906 211.199219 573.726562 209.496094 573.191406 207.832031 L 593.429688 187.585938 C 594.253906 188.21875 595.089844 188.828125 595.949219 189.414062 C 596.804688 189.996094 597.675781 190.558594 598.566406 191.09375 C 599.453125 191.628906 600.355469 192.136719 601.273438 192.621094 C 602.191406 193.105469 603.121094 193.5625 604.0625 193.992188 C 605.007812 194.421875 605.960938 194.824219 606.929688 195.199219 C 607.894531 195.578125 608.871094 195.925781 609.855469 196.246094 C 610.84375 196.566406 611.835938 196.859375 612.839844 197.121094 C 613.84375 197.386719 614.851562 197.621094 615.867188 197.828125 C 616.882812 198.035156 617.90625 198.210938 618.933594 198.359375 C 619.957031 198.507812 620.988281 198.625 622.019531 198.714844 C 623.054688 198.804688 624.089844 198.863281 625.125 198.894531 C 626.160156 198.925781 627.199219 198.925781 628.234375 198.894531 C 629.269531 198.867188 630.304688 198.808594 631.339844 198.722656 C 632.371094 198.632812 633.402344 198.515625 634.429688 198.371094 C 635.457031 198.222656 636.476562 198.046875 637.492188 197.84375 C 638.507812 197.640625 639.519531 197.40625 640.523438 197.144531 C 641.527344 196.882812 642.519531 196.589844 643.507812 196.273438 C 644.492188 195.953125 645.472656 195.605469 646.4375 195.230469 C 647.40625 194.855469 648.359375 194.453125 649.304688 194.027344 C 650.246094 193.597656 651.179688 193.140625 652.097656 192.660156 C 653.015625 192.175781 653.917969 191.667969 654.808594 191.136719 C 655.695312 190.601562 656.570312 190.042969 657.425781 189.460938 C 658.285156 188.875 659.125 188.269531 659.945312 187.636719 C 660.769531 187.007812 661.574219 186.351562 662.359375 185.675781 C 663.144531 185 663.910156 184.300781 664.652344 183.578125 C 665.398438 182.859375 666.125 182.117188 666.828125 181.355469 C 667.53125 180.59375 668.210938 179.8125 668.871094 179.011719 C 669.527344 178.210938 670.164062 177.390625 670.777344 176.554688 C 671.386719 175.714844 671.976562 174.863281 672.539062 173.992188 C 673.101562 173.121094 673.640625 172.234375 674.152344 171.335938 C 674.664062 170.433594 675.152344 169.519531 675.613281 168.589844 C 676.074219 167.660156 676.507812 166.71875 676.914062 165.765625 C 677.320312 164.8125 677.699219 163.847656 678.054688 162.871094 C 678.40625 161.898438 678.730469 160.910156 679.023438 159.917969 C 679.320312 158.925781 679.589844 157.921875 679.828125 156.914062 C 680.066406 155.90625 680.277344 154.890625 680.457031 153.867188 C 680.636719 152.847656 680.789062 151.824219 680.910156 150.792969 C 681.035156 149.761719 681.128906 148.730469 681.191406 147.695312 C 681.253906 146.660156 681.289062 145.625 681.292969 144.589844 C 681.296875 143.550781 681.273438 142.515625 681.21875 141.480469 C 681.164062 140.445312 681.082031 139.410156 680.96875 138.382812 C 680.855469 137.351562 680.710938 136.324219 680.539062 135.300781 C 680.367188 134.277344 680.167969 133.261719 679.9375 132.25 C 679.707031 131.238281 679.449219 130.234375 679.160156 129.238281 C 678.875 128.242188 678.558594 127.253906 678.214844 126.277344 C 677.875 125.296875 677.503906 124.332031 677.105469 123.375 C 676.707031 122.417969 676.28125 121.472656 675.828125 120.539062 C 675.375 119.605469 674.898438 118.6875 674.390625 117.78125 C 673.886719 116.875 673.355469 115.984375 672.800781 115.109375 C 672.246094 114.234375 671.667969 113.375 671.0625 112.53125 C 670.457031 111.6875 669.828125 110.863281 669.179688 110.058594 C 668.527344 109.25 667.851562 108.464844 667.15625 107.695312 C 666.460938 106.925781 665.742188 106.179688 665.003906 105.453125 C 664.265625 104.722656 663.503906 104.019531 662.726562 103.335938 C 661.945312 102.648438 661.148438 101.988281 660.332031 101.351562 C 659.515625 100.710938 658.679688 100.097656 657.828125 99.507812 C 656.976562 98.914062 656.109375 98.347656 655.222656 97.808594 C 654.339844 97.265625 653.441406 96.75 652.527344 96.257812 C 651.613281 95.769531 650.6875 95.304688 649.746094 94.867188 C 648.808594 94.429688 647.855469 94.019531 646.890625 93.636719 C 645.929688 93.253906 644.953125 92.898438 643.972656 92.570312 C 642.988281 92.242188 641.996094 91.941406 640.992188 91.671875 C 639.992188 91.402344 638.984375 91.15625 637.972656 90.945312 C 636.957031 90.730469 635.9375 90.546875 634.910156 90.390625 M 626.523438 172.304688 C 625.589844 172.332031 624.65625 172.308594 623.726562 172.242188 C 622.796875 172.175781 621.871094 172.0625 620.953125 171.902344 C 620.03125 171.742188 619.125 171.535156 618.226562 171.285156 C 617.324219 171.035156 616.441406 170.738281 615.574219 170.398438 C 614.703125 170.0625 613.851562 169.679688 613.023438 169.253906 C 612.191406 168.832031 611.382812 168.367188 610.597656 167.859375 C 609.8125 167.355469 609.054688 166.8125 608.328125 166.234375 C 607.597656 165.652344 606.894531 165.035156 606.226562 164.386719 C 605.558594 163.734375 604.925781 163.050781 604.324219 162.339844 C 603.722656 161.625 603.160156 160.882812 602.632812 160.113281 C 602.105469 159.339844 601.621094 158.546875 601.171875 157.726562 C 600.726562 156.90625 600.320312 156.070312 599.957031 155.210938 C 599.59375 154.347656 599.277344 153.472656 599 152.582031 C 598.726562 151.691406 598.496094 150.789062 598.308594 149.875 C 598.125 148.957031 597.984375 148.039062 597.890625 147.109375 C 597.800781 146.179688 597.753906 145.25 597.753906 144.316406 C 597.753906 143.382812 597.800781 142.453125 597.890625 141.523438 C 597.984375 140.597656 598.125 139.675781 598.308594 138.757812 C 598.496094 137.84375 598.726562 136.941406 599 136.050781 C 599.277344 135.160156 599.59375 134.285156 599.957031 133.425781 C 600.320312 132.5625 600.726562 131.726562 601.171875 130.90625 C 601.621094 130.085938 602.105469 129.292969 602.632812 128.523438 C 603.160156 127.75 603.722656 127.007812 604.324219 126.292969 C 604.925781 125.582031 605.558594 124.898438 606.226562 124.246094 C 606.894531 123.597656 607.597656 122.980469 608.328125 122.402344 C 609.054688 121.820312 609.8125 121.277344 610.597656 120.773438 C 611.382812 120.265625 612.191406 119.800781 613.023438 119.378906 C 613.851562 118.953125 614.703125 118.570312 615.574219 118.234375 C 616.441406 117.894531 617.324219 117.597656 618.226562 117.347656 C 619.125 117.097656 620.03125 116.890625 620.953125 116.730469 C 621.871094 116.570312 622.796875 116.457031 623.726562 116.390625 C 624.65625 116.324219 625.589844 116.300781 626.523438 116.328125 C 627.417969 116.359375 628.308594 116.433594 629.199219 116.550781 C 630.085938 116.667969 630.96875 116.828125 631.839844 117.027344 C 632.714844 117.230469 633.574219 117.472656 634.425781 117.757812 C 635.277344 118.042969 636.109375 118.367188 636.929688 118.730469 C 637.746094 119.09375 638.546875 119.496094 639.328125 119.9375 C 640.105469 120.378906 640.863281 120.859375 641.597656 121.371094 C 642.332031 121.886719 643.039062 122.433594 643.722656 123.015625 C 644.402344 123.597656 645.054688 124.210938 645.679688 124.855469 C 646.300781 125.5 646.890625 126.171875 647.449219 126.875 C 648.007812 127.574219 648.53125 128.300781 649.019531 129.054688 C 649.507812 129.804688 649.960938 130.578125 650.375 131.375 C 650.789062 132.167969 651.164062 132.980469 651.5 133.8125 C 651.835938 134.644531 652.128906 135.488281 652.386719 136.347656 C 652.640625 137.207031 652.851562 138.074219 653.023438 138.957031 C 653.195312 139.835938 653.324219 140.722656 653.410156 141.613281 C 653.496094 142.503906 653.539062 143.398438 653.542969 144.296875 C 653.542969 145.191406 653.5 146.085938 653.414062 146.976562 C 653.328125 147.871094 653.199219 148.757812 653.03125 149.636719 C 652.859375 150.515625 652.648438 151.386719 652.394531 152.246094 C 652.140625 153.105469 651.84375 153.949219 651.507812 154.78125 C 651.175781 155.613281 650.800781 156.425781 650.386719 157.222656 C 649.972656 158.015625 649.523438 158.789062 649.035156 159.542969 C 648.546875 160.292969 648.023438 161.019531 647.46875 161.722656 C 646.910156 162.425781 646.320312 163.097656 645.699219 163.742188 C 645.078125 164.390625 644.425781 165.003906 643.742188 165.585938 C 643.0625 166.167969 642.355469 166.71875 641.621094 167.230469 C 640.886719 167.746094 640.132812 168.226562 639.351562 168.667969 C 638.570312 169.109375 637.773438 169.511719 636.953125 169.878906 C 636.136719 170.242188 635.300781 170.570312 634.453125 170.855469 C 633.601562 171.140625 632.742188 171.382812 631.867188 171.585938 C 630.996094 171.789062 630.113281 171.949219 629.226562 172.066406 C 628.335938 172.183594 627.445312 172.257812 626.550781 172.292969 " fill-opacity="1" fill-rule="nonzero"/></g></svg>