<svg xmlns="http://www.w3.org/2000/svg" xmlns:xlink="http://www.w3.org/1999/xlink" width="1000" zoomAndPan="magnify" viewBox="0 0 750 262.499992" height="350" preserveAspectRatio="xMidYMid meet" version="1.0"><defs><clipPath id="c653ee0b08"><path d="M 680 98 L 749.285156 98 L 749.285156 163 L 680 163 Z M 680 98 " clip-rule="nonzero"/></clipPath><clipPath id="fac553fc93"><path d="M 0.714844 81.09375 L 167 81.09375 L 167 180.65625 L 0.714844 180.65625 Z M 0.714844 81.09375 " clip-rule="nonzero"/></clipPath></defs><path fill="#ffffff" d="M 517.539062 120.253906 C 517.539062 107.976562 509.867188 99.152344 495.667969 99.152344 L 448.859375 99.152344 L 448.859375 162.84375 L 464.207031 162.84375 L 464.207031 140.972656 L 482.242188 140.972656 L 499.890625 162.84375 L 517.15625 162.84375 L 517.15625 161.308594 L 499.890625 140.589844 C 511.015625 138.289062 517.539062 130.230469 517.539062 120.253906 Z M 493.75 127.929688 L 464.207031 127.929688 L 464.207031 112.199219 L 493.75 112.199219 C 499.121094 112.199219 502.574219 115.265625 502.574219 120.253906 C 502.960938 125.242188 499.507812 127.929688 493.75 127.929688 Z M 493.75 127.929688 " fill-opacity="1" fill-rule="nonzero"/><g clip-path="url(#c653ee0b08)"><path fill="#ffffff" d="M 749.285156 98.769531 L 735.089844 98.769531 L 735.089844 122.941406 L 696.339844 122.941406 L 696.339844 98.769531 L 680.992188 98.769531 L 680.992188 162.460938 L 696.339844 162.460938 L 696.339844 137.519531 L 735.089844 137.519531 L 735.089844 162.460938 L 749.285156 162.460938 Z M 749.285156 98.769531 " fill-opacity="1" fill-rule="nonzero"/></g><path fill="#ffffff" d="M 407.804688 98.769531 L 390.921875 152.101562 L 390.15625 152.101562 L 372.890625 98.769531 L 345.648438 98.769531 L 345.648438 162.460938 L 360.226562 162.460938 L 360.226562 110.28125 L 360.996094 110.28125 L 377.878906 162.460938 L 401.28125 162.460938 L 418.546875 110.28125 L 419.316406 110.28125 L 419.316406 162.460938 L 434.28125 162.460938 L 434.28125 98.769531 Z M 407.804688 98.769531 " fill-opacity="1" fill-rule="nonzero"/><path fill="#ffffff" d="M 240.902344 124.859375 C 235.53125 124.476562 225.554688 123.324219 219.796875 122.941406 C 214.425781 122.558594 211.355469 120.640625 211.355469 117.1875 C 211.355469 113.734375 214.808594 111.046875 227.855469 111.046875 C 239.367188 111.046875 250.109375 113.734375 259.703125 117.953125 L 259.703125 103.757812 C 250.492188 99.152344 240.132812 97.234375 227.089844 97.234375 C 209.054688 97.234375 196.394531 104.90625 196.394531 117.570312 C 196.394531 128.3125 203.683594 134.453125 218.648438 135.988281 C 224.019531 136.753906 233.226562 137.519531 239.367188 137.90625 C 246.273438 138.289062 248.191406 140.589844 248.191406 143.660156 C 248.191406 147.878906 243.203125 150.566406 231.308594 150.566406 C 219.03125 150.566406 206.371094 146.347656 197.160156 140.972656 L 197.160156 155.554688 C 204.449219 160.542969 216.730469 164.378906 230.925781 164.378906 C 250.492188 164.378906 263.15625 156.707031 263.15625 143.277344 C 263.15625 132.917969 256.632812 126.394531 240.902344 124.859375 Z M 240.902344 124.859375 " fill-opacity="1" fill-rule="nonzero"/><path fill="#ffffff" d="M 273.515625 98.769531 L 273.515625 162.460938 L 332.601562 162.460938 L 332.601562 149.414062 L 288.09375 149.414062 L 288.09375 136.371094 L 331.835938 136.371094 L 331.835938 123.324219 L 288.09375 123.324219 L 288.09375 111.8125 L 332.601562 111.8125 L 332.601562 98.769531 Z M 273.515625 98.769531 " fill-opacity="1" fill-rule="nonzero"/><path fill="#ffffff" d="M 649.144531 124.859375 C 643.773438 124.476562 633.796875 123.324219 628.042969 122.941406 C 622.671875 122.558594 619.601562 120.640625 619.601562 117.1875 C 619.601562 113.734375 623.054688 111.046875 636.097656 111.046875 C 647.609375 111.046875 658.351562 113.347656 667.945312 117.953125 L 667.945312 103.757812 C 658.738281 99.152344 648.378906 97.234375 635.332031 97.234375 C 617.296875 97.234375 604.636719 104.90625 604.636719 117.570312 C 604.636719 128.3125 611.925781 134.453125 626.890625 135.988281 C 632.261719 136.753906 641.472656 137.519531 647.609375 137.90625 C 654.515625 138.289062 656.433594 140.589844 656.433594 143.660156 C 656.433594 147.878906 651.445312 150.566406 639.550781 150.566406 C 627.273438 150.566406 614.613281 146.347656 605.40625 140.972656 L 605.40625 155.554688 C 612.695312 160.542969 624.972656 164.378906 639.167969 164.378906 C 658.738281 164.378906 671.398438 156.707031 671.398438 143.277344 C 671.398438 132.917969 664.492188 126.394531 649.144531 124.859375 Z M 649.144531 124.859375 " fill-opacity="1" fill-rule="nonzero"/><path fill="#ffffff" d="M 578.929688 98.769531 L 578.929688 131.382812 C 578.929688 143.660156 571.257812 150.566406 560.128906 150.566406 C 548.617188 150.566406 541.328125 144.042969 541.328125 131.382812 L 541.328125 98.769531 L 525.980469 98.769531 L 525.980469 129.847656 C 525.980469 152.867188 540.5625 164.378906 560.128906 164.378906 C 579.3125 164.378906 593.894531 153.253906 593.894531 130.613281 L 593.894531 98.769531 Z M 578.929688 98.769531 " fill-opacity="1" fill-rule="nonzero"/><g clip-path="url(#fac553fc93)"><path fill="#ff642d" d="M 144.210938 130.230469 C 144.210938 133.300781 142.675781 133.683594 138.839844 133.683594 C 134.621094 133.683594 133.851562 132.917969 133.46875 129.847656 C 132.703125 121.789062 127.328125 114.882812 118.121094 114.5 C 115.433594 114.117188 114.667969 113.347656 114.667969 109.511719 C 114.667969 106.058594 115.050781 104.523438 117.738281 104.523438 C 133.085938 104.90625 144.210938 117.570312 144.210938 130.230469 Z M 166.847656 130.230469 C 166.847656 106.441406 150.734375 81.121094 113.132812 81.121094 L 39.082031 81.121094 C 37.546875 81.121094 36.394531 81.886719 36.394531 83.421875 C 36.394531 84.1875 36.78125 84.957031 37.546875 85.339844 C 40.234375 87.640625 44.070312 89.945312 49.441406 92.628906 C 54.429688 95.316406 58.648438 96.851562 62.488281 98.386719 C 64.019531 99.152344 64.789062 99.917969 64.789062 100.6875 C 64.789062 101.839844 64.019531 102.988281 62.101562 102.988281 L 3.398438 102.988281 C 1.480469 102.605469 0.714844 103.757812 0.714844 104.90625 C 0.714844 106.058594 1.097656 106.828125 1.863281 107.59375 C 6.46875 112.582031 14.140625 118.71875 25.269531 125.625 C 34.859375 131.765625 47.140625 138.289062 56.730469 142.894531 C 58.265625 143.660156 59.035156 144.425781 59.035156 145.578125 C 59.035156 146.730469 58.265625 147.496094 56.347656 147.496094 L 29.105469 147.496094 C 27.570312 147.496094 26.804688 148.265625 26.804688 149.414062 C 26.804688 150.183594 27.1875 150.949219 27.953125 151.71875 C 34.09375 157.472656 44.070312 163.226562 57.113281 168.984375 C 74.765625 176.273438 92.414062 180.878906 112.367188 180.878906 C 150.351562 180.878906 166.847656 152.484375 166.847656 130.230469 Z M 117.355469 164.378906 C 98.9375 164.378906 83.207031 149.414062 83.207031 130.230469 C 83.207031 111.8125 98.554688 96.851562 117.355469 96.851562 C 136.539062 96.851562 151.503906 111.8125 151.503906 130.230469 C 151.503906 149.03125 136.539062 164.378906 117.355469 164.378906 Z M 117.355469 164.378906 " fill-opacity="1" fill-rule="nonzero"/></g></svg>