<svg xmlns="http://www.w3.org/2000/svg" xmlns:xlink="http://www.w3.org/1999/xlink" width="1000" zoomAndPan="magnify" viewBox="0 0 750 262.499992" height="350" preserveAspectRatio="xMidYMid meet" version="1.0"><defs><clipPath id="40f7c9831e"><path d="M 708 110 L 749.285156 110 L 749.285156 170 L 708 170 Z M 708 110 " clip-rule="nonzero"/></clipPath><clipPath id="9613ae0232"><path d="M 0.714844 46 L 171 46 L 171 215.863281 L 0.714844 215.863281 Z M 0.714844 46 " clip-rule="nonzero"/></clipPath></defs><path fill="#00749a" d="M 434.871094 112.929688 L 405.40625 112.929688 L 405.40625 116.054688 C 414.621094 116.054688 416.105469 118.03125 416.105469 129.71875 L 416.105469 150.792969 C 416.105469 162.480469 414.625 164.621094 405.40625 164.621094 C 398.328125 163.632812 393.550781 159.84375 386.96875 152.601562 L 379.394531 144.371094 C 389.601562 142.558594 395.03125 136.140625 395.03125 128.894531 C 395.03125 119.84375 387.296875 112.929688 372.808594 112.929688 L 343.835938 112.929688 L 343.835938 116.054688 C 353.054688 116.054688 354.535156 118.03125 354.535156 129.71875 L 354.535156 150.792969 C 354.535156 162.480469 353.054688 164.621094 343.835938 164.621094 L 343.835938 167.746094 L 376.59375 167.746094 L 376.59375 164.621094 C 367.378906 164.621094 365.898438 162.480469 365.898438 150.792969 L 365.898438 144.867188 L 368.695312 144.867188 L 386.96875 167.746094 L 434.871094 167.746094 C 458.410156 167.746094 468.617188 155.238281 468.617188 140.253906 C 468.617188 125.273438 458.414062 112.929688 434.871094 112.929688 Z M 365.898438 139.757812 L 365.898438 117.867188 L 372.644531 117.867188 C 380.054688 117.867188 383.347656 122.972656 383.347656 128.898438 C 383.347656 134.660156 380.054688 139.761719 372.644531 139.761719 L 365.898438 139.761719 Z M 435.367188 162.644531 L 434.214844 162.644531 C 428.289062 162.644531 427.464844 161.164062 427.464844 153.589844 L 427.464844 117.867188 C 427.464844 117.867188 434.707031 117.867188 435.367188 117.867188 C 452.488281 117.867188 455.613281 130.378906 455.613281 140.089844 C 455.613281 150.132812 452.484375 162.644531 435.367188 162.644531 Z M 435.367188 162.644531 " fill-opacity="1" fill-rule="nonzero"/><path fill="#00749a" d="M 252.148438 145.855469 L 263.507812 112.269531 C 266.800781 102.558594 265.320312 99.757812 254.78125 99.757812 L 254.78125 96.464844 L 285.730469 96.464844 L 285.730469 99.757812 C 275.359375 99.757812 272.890625 102.226562 268.777344 114.246094 L 250.007812 170.546875 L 247.867188 170.546875 L 231.074219 119.019531 L 213.957031 170.546875 L 211.816406 170.546875 L 193.542969 114.246094 C 189.59375 102.226562 186.960938 99.757812 177.410156 99.757812 L 177.410156 96.464844 L 213.957031 96.464844 L 213.957031 99.757812 C 204.242188 99.757812 201.609375 102.0625 205.066406 112.269531 L 216.097656 145.855469 L 232.722656 96.464844 L 235.851562 96.464844 Z M 252.148438 145.855469 " fill-opacity="1" fill-rule="nonzero"/><path fill="#00749a" d="M 308.117188 169.886719 C 290.007812 169.886719 275.191406 156.550781 275.191406 140.253906 C 275.191406 124.121094 290.011719 110.785156 308.117188 110.785156 C 326.226562 110.785156 341.039062 124.121094 341.039062 140.253906 C 341.039062 156.550781 326.226562 169.886719 308.117188 169.886719 Z M 308.117188 115.890625 C 292.972656 115.890625 287.703125 129.554688 287.703125 140.253906 C 287.703125 151.121094 292.972656 164.621094 308.117188 164.621094 C 323.425781 164.621094 328.695312 151.121094 328.695312 140.253906 C 328.695312 129.554688 323.425781 115.890625 308.117188 115.890625 Z M 308.117188 115.890625 " fill-opacity="1" fill-rule="nonzero"/><path fill="#ffffff" d="M 509.277344 164.453125 L 509.277344 167.746094 L 471.578125 167.746094 L 471.578125 164.453125 C 482.609375 164.453125 484.585938 161.65625 484.585938 145.191406 L 484.585938 118.855469 C 484.585938 102.390625 482.609375 99.757812 471.578125 99.757812 L 471.578125 96.464844 L 505.65625 96.464844 C 522.609375 96.464844 531.996094 105.1875 531.996094 116.878906 C 531.996094 128.238281 522.609375 137.128906 505.65625 137.128906 L 496.273438 137.128906 L 496.273438 145.191406 C 496.273438 161.65625 498.246094 164.453125 509.277344 164.453125 Z M 505.65625 102.390625 L 496.273438 102.390625 L 496.273438 131.035156 L 505.65625 131.035156 C 514.875 131.035156 519.15625 124.617188 519.15625 116.878906 C 519.15625 108.976562 514.875 102.390625 505.65625 102.390625 Z M 505.65625 102.390625 " fill-opacity="1" fill-rule="nonzero"/><path fill="#ffffff" d="M 645.085938 152.273438 L 644.261719 155.234375 C 642.78125 160.667969 640.96875 162.644531 629.28125 162.644531 L 626.976562 162.644531 C 618.417969 162.644531 616.9375 160.667969 616.9375 148.980469 L 616.9375 141.410156 C 629.777344 141.410156 630.765625 142.558594 630.765625 151.121094 L 633.894531 151.121094 L 633.894531 126.589844 L 630.765625 126.589844 C 630.765625 135.152344 629.777344 136.304688 616.9375 136.304688 L 616.9375 117.867188 L 625.988281 117.867188 C 637.679688 117.867188 639.488281 119.84375 640.96875 125.277344 L 641.792969 128.402344 L 644.425781 128.402344 L 643.277344 112.929688 L 594.878906 112.929688 L 594.878906 116.054688 C 604.09375 116.054688 605.578125 118.03125 605.578125 129.71875 L 605.578125 150.792969 C 605.578125 161.484375 604.320312 164.175781 597.050781 164.5625 C 590.144531 163.507812 585.402344 159.738281 578.910156 152.601562 L 571.339844 144.371094 C 581.546875 142.558594 586.976562 136.140625 586.976562 128.894531 C 586.976562 119.84375 579.242188 112.929688 564.753906 112.929688 L 535.78125 112.929688 L 535.78125 116.054688 C 545 116.054688 546.480469 118.03125 546.480469 129.71875 L 546.480469 150.792969 C 546.480469 162.480469 545 164.621094 535.78125 164.621094 L 535.78125 167.746094 L 568.542969 167.746094 L 568.542969 164.621094 C 559.324219 164.621094 557.84375 162.480469 557.84375 150.792969 L 557.84375 144.867188 L 560.640625 144.867188 L 578.914062 167.746094 L 646.570312 167.746094 L 647.558594 152.273438 Z M 557.839844 139.757812 L 557.839844 117.867188 L 564.589844 117.867188 C 571.996094 117.867188 575.289062 122.972656 575.289062 128.898438 C 575.289062 134.660156 571.996094 139.761719 564.589844 139.761719 L 557.839844 139.761719 Z M 557.839844 139.757812 " fill-opacity="1" fill-rule="nonzero"/><path fill="#ffffff" d="M 678.503906 169.886719 C 671.917969 169.886719 666.15625 166.429688 663.6875 164.289062 C 662.863281 165.113281 661.382812 167.582031 661.054688 169.886719 L 657.925781 169.886719 L 657.925781 147.171875 L 661.21875 147.171875 C 662.535156 158.035156 670.105469 164.453125 679.820312 164.453125 C 685.089844 164.453125 689.371094 161.492188 689.371094 156.554688 C 689.371094 152.273438 685.582031 148.980469 678.832031 145.855469 L 669.449219 141.410156 C 662.863281 138.277344 657.925781 132.847656 657.925781 125.605469 C 657.925781 117.703125 665.335938 110.953125 675.542969 110.953125 C 680.972656 110.953125 685.582031 112.929688 688.382812 115.234375 C 689.203125 114.574219 690.027344 112.765625 690.523438 110.785156 L 693.648438 110.785156 L 693.648438 130.214844 L 690.191406 130.214844 C 689.039062 122.476562 684.761719 116.054688 676.035156 116.054688 C 671.425781 116.054688 667.144531 118.691406 667.144531 122.808594 C 667.144531 127.085938 670.601562 129.390625 678.503906 133.011719 L 687.558594 137.457031 C 695.460938 141.242188 698.585938 147.335938 698.585938 152.273438 C 698.585938 162.644531 689.53125 169.886719 678.503906 169.886719 Z M 678.503906 169.886719 " fill-opacity="1" fill-rule="nonzero"/><g clip-path="url(#40f7c9831e)"><path fill="#ffffff" d="M 729.207031 169.886719 C 722.621094 169.886719 716.855469 166.429688 714.390625 164.289062 C 713.566406 165.113281 712.085938 167.582031 711.757812 169.886719 L 708.628906 169.886719 L 708.628906 147.171875 L 711.921875 147.171875 C 713.238281 158.035156 720.808594 164.453125 730.523438 164.453125 C 735.789062 164.453125 740.070312 161.492188 740.070312 156.554688 C 740.070312 152.273438 736.285156 148.980469 729.535156 145.855469 L 720.152344 141.410156 C 713.566406 138.277344 708.628906 132.847656 708.628906 125.605469 C 708.628906 117.703125 716.035156 110.953125 726.242188 110.953125 C 731.675781 110.953125 736.28125 112.929688 739.082031 115.234375 C 739.90625 114.574219 740.726562 112.765625 741.21875 110.785156 L 744.347656 110.785156 L 744.347656 130.214844 L 740.894531 130.214844 C 739.738281 122.476562 735.460938 116.054688 726.738281 116.054688 C 722.128906 116.054688 717.84375 118.691406 717.84375 122.808594 C 717.84375 127.085938 721.304688 129.390625 729.207031 133.011719 L 738.257812 137.457031 C 746.160156 141.242188 749.289062 147.335938 749.289062 152.273438 C 749.285156 162.644531 740.234375 169.886719 729.207031 169.886719 Z M 729.207031 169.886719 " fill-opacity="1" fill-rule="nonzero"/></g><path fill="#ffffff" d="M 12.785156 130.996094 C 12.785156 159.832031 29.542969 184.753906 53.84375 196.5625 L 19.09375 101.347656 C 15.050781 110.40625 12.785156 120.433594 12.785156 130.996094 Z M 12.785156 130.996094 " fill-opacity="1" fill-rule="nonzero"/><path fill="#ffffff" d="M 134.820312 127.320312 C 134.820312 118.316406 131.585938 112.082031 128.8125 107.226562 C 125.117188 101.226562 121.65625 96.144531 121.65625 90.144531 C 121.65625 83.445312 126.734375 77.210938 133.890625 77.210938 C 134.210938 77.210938 134.519531 77.253906 134.832031 77.269531 C 121.871094 65.394531 104.605469 58.144531 85.636719 58.144531 C 60.1875 58.144531 37.792969 71.203125 24.765625 90.984375 C 26.476562 91.035156 28.085938 91.070312 29.457031 91.070312 C 37.074219 91.070312 48.871094 90.144531 48.871094 90.144531 C 52.796875 89.914062 53.261719 95.683594 49.339844 96.148438 C 49.339844 96.148438 45.390625 96.609375 41 96.839844 L 67.53125 175.753906 L 83.472656 127.9375 L 72.121094 96.839844 C 68.199219 96.609375 64.484375 96.144531 64.484375 96.144531 C 60.558594 95.914062 61.015625 89.910156 64.945312 90.144531 C 64.945312 90.144531 76.976562 91.066406 84.132812 91.066406 C 91.753906 91.066406 103.550781 90.144531 103.550781 90.144531 C 107.480469 89.910156 107.941406 95.679688 104.015625 96.144531 C 104.015625 96.144531 100.0625 96.609375 95.679688 96.839844 L 122.003906 175.152344 L 129.273438 150.871094 C 132.421875 140.792969 134.820312 133.554688 134.820312 127.320312 Z M 134.820312 127.320312 " fill-opacity="1" fill-rule="nonzero"/><path fill="#ffffff" d="M 86.914062 137.367188 L 65.058594 200.886719 C 71.582031 202.804688 78.484375 203.851562 85.636719 203.851562 C 94.121094 203.851562 102.257812 202.386719 109.832031 199.722656 C 109.632812 199.410156 109.457031 199.078125 109.3125 198.71875 Z M 86.914062 137.367188 " fill-opacity="1" fill-rule="nonzero"/><path fill="#ffffff" d="M 149.5625 96.042969 C 149.875 98.363281 150.054688 100.855469 150.054688 103.535156 C 150.054688 110.925781 148.671875 119.238281 144.515625 129.628906 L 122.261719 193.96875 C 143.917969 181.339844 158.488281 157.875 158.488281 130.996094 C 158.488281 118.332031 155.253906 106.421875 149.5625 96.042969 Z M 149.5625 96.042969 " fill-opacity="1" fill-rule="nonzero"/><g clip-path="url(#9613ae0232)"><path fill="#ffffff" d="M 85.636719 46.074219 C 38.8125 46.074219 0.714844 84.167969 0.714844 130.996094 C 0.714844 177.828125 38.8125 215.921875 85.636719 215.921875 C 132.460938 215.921875 170.566406 177.828125 170.566406 130.996094 C 170.5625 84.167969 132.460938 46.074219 85.636719 46.074219 Z M 85.636719 212.027344 C 40.957031 212.027344 4.605469 175.675781 4.605469 130.996094 C 4.605469 86.316406 40.957031 49.96875 85.636719 49.96875 C 130.316406 49.96875 166.664062 86.316406 166.664062 130.996094 C 166.664062 175.675781 130.316406 212.027344 85.636719 212.027344 Z M 85.636719 212.027344 " fill-opacity="1" fill-rule="nonzero"/></g></svg>