<svg xmlns="http://www.w3.org/2000/svg" xmlns:xlink="http://www.w3.org/1999/xlink" width="1000" zoomAndPan="magnify" viewBox="0 0 750 262.499992" height="350" preserveAspectRatio="xMidYMid meet" version="1.0"><path fill="#ea1b15" d="M 8.320312 56.417969 C 8.320312 42.6875 19.449219 31.554688 33.179688 31.554688 L 182.339844 31.554688 C 196.066406 31.554688 207.199219 42.6875 207.199219 56.417969 L 207.199219 205.574219 C 207.199219 219.304688 196.066406 230.433594 182.339844 230.433594 L 33.179688 230.433594 C 19.449219 230.433594 8.320312 219.304688 8.320312 205.574219 Z M 8.320312 56.417969 " fill-opacity="1" fill-rule="nonzero"/><path fill="#ffffff" d="M 145.050781 81.277344 L 155.730469 81.277344 C 156.699219 81.277344 157.480469 82.058594 157.480469 83.027344 L 157.480469 110.570312 C 157.480469 111.539062 156.730469 112.320312 155.761719 112.351562 L 146.796875 112.351562 C 145.832031 112.351562 145.050781 111.570312 145.050781 110.601562 L 145.050781 102.542969 L 75.957031 168.285156 L 93.578125 168.285156 C 94.546875 168.285156 95.328125 169.066406 95.328125 170.035156 L 95.328125 178.964844 C 95.328125 179.933594 94.546875 180.714844 93.578125 180.714844 L 59.789062 180.714844 C 58.820312 180.714844 58.039062 179.933594 58.039062 178.964844 L 58.039062 168.285156 L 136.359375 93.707031 L 128.152344 93.707031 C 127.183594 93.707031 126.40625 92.925781 126.40625 91.957031 L 126.40625 83.054688 C 126.40625 82.085938 127.183594 81.308594 128.152344 81.308594 Z M 82.898438 93.707031 L 112.226562 93.671875 C 113.191406 93.671875 113.972656 92.890625 113.972656 91.921875 L 113.972656 83.019531 C 113.972656 82.050781 113.191406 81.269531 112.257812 81.269531 L 59.851562 81.269531 C 58.882812 81.269531 58.101562 82.050781 58.101562 83.019531 L 58.101562 110.597656 C 58.101562 111.566406 58.882812 112.347656 59.851562 112.347656 L 68.75 112.347656 C 69.71875 112.347656 70.46875 111.566406 70.46875 110.597656 L 70.46875 93.703125 Z M 145.050781 168.285156 L 109.507812 168.285156 C 108.539062 168.285156 107.757812 169.066406 107.757812 170.035156 L 107.757812 178.964844 C 107.757812 179.933594 108.539062 180.714844 109.507812 180.714844 L 155.730469 180.714844 C 156.699219 180.714844 157.480469 179.933594 157.480469 178.964844 L 157.480469 151.246094 C 157.480469 150.277344 156.699219 149.496094 155.730469 149.496094 L 146.796875 149.496094 C 145.832031 149.496094 145.050781 150.273438 145.050781 151.246094 Z M 145.050781 168.285156 " fill-opacity="1" fill-rule="nonzero"/><path fill="#ffffff" d="M 256.917969 174.765625 L 256.917969 163.417969 L 299.007812 123.933594 L 269.484375 123.933594 L 269.484375 131.71875 L 257.597656 131.71875 L 257.597656 113.121094 L 314.855469 113.121094 L 314.855469 124.472656 L 273.109375 163.730469 L 303.648438 163.730469 L 303.648438 155.832031 L 315.535156 155.832031 L 315.535156 174.769531 Z M 256.917969 174.765625 " fill-opacity="1" fill-rule="nonzero"/><path fill="#ffffff" d="M 351.652344 176.183594 C 345.484375 176.183594 340.078125 174.796875 335.378906 172.050781 C 330.707031 169.304688 327.027344 165.484375 324.339844 160.644531 C 321.679688 155.800781 320.320312 150.199219 320.320312 143.886719 C 320.320312 137.574219 321.621094 131.96875 324.253906 127.128906 C 326.886719 122.289062 330.535156 118.46875 335.234375 115.722656 C 339.933594 112.980469 345.3125 111.589844 351.398438 111.589844 C 357.484375 111.589844 362.859375 112.980469 367.558594 115.722656 C 372.230469 118.46875 375.910156 122.289062 378.539062 127.128906 C 381.171875 131.96875 382.476562 137.574219 382.476562 143.886719 C 382.476562 150.199219 381.171875 155.800781 378.539062 160.644531 C 375.910156 165.484375 372.285156 169.304688 367.644531 172.050781 C 363.003906 174.796875 357.679688 176.183594 351.679688 176.183594 Z M 351.652344 165.453125 C 355.363281 165.453125 358.644531 164.519531 361.503906 162.679688 C 364.390625 160.839844 366.625 158.292969 368.210938 155.09375 C 369.824219 151.898438 370.617188 148.160156 370.617188 143.886719 C 370.617188 139.613281 369.824219 135.875 368.210938 132.679688 C 366.597656 129.480469 364.332031 126.933594 361.363281 125.09375 C 358.390625 123.253906 355.078125 122.320312 351.371094 122.320312 C 347.660156 122.320312 344.265625 123.253906 341.378906 125.09375 C 338.492188 126.933594 336.253906 129.480469 334.585938 132.679688 C 332.945312 135.875 332.125 139.613281 332.125 143.886719 C 332.125 148.160156 332.945312 151.898438 334.585938 155.09375 C 336.226562 158.292969 338.519531 160.839844 341.492188 162.679688 C 344.464844 164.519531 347.832031 165.453125 351.597656 165.453125 Z M 351.652344 165.453125 " fill-opacity="1" fill-rule="nonzero"/><path fill="#ffffff" d="M 420.316406 176.183594 C 414.144531 176.183594 408.742188 174.796875 404.042969 172.050781 C 399.375 169.304688 395.695312 165.484375 393.003906 160.644531 C 390.34375 155.800781 388.984375 150.199219 388.984375 143.886719 C 388.984375 137.574219 390.285156 131.96875 392.917969 127.128906 C 395.550781 122.289062 399.203125 118.46875 403.902344 115.722656 C 408.597656 112.980469 413.976562 111.589844 420.0625 111.589844 C 426.148438 111.589844 431.527344 112.980469 436.226562 115.722656 C 440.894531 118.46875 444.574219 122.289062 447.207031 127.128906 C 449.839844 131.96875 451.140625 137.574219 451.140625 143.886719 C 451.140625 150.199219 449.839844 155.800781 447.207031 160.644531 C 444.574219 165.484375 440.953125 169.304688 436.308594 172.050781 C 431.667969 174.796875 426.347656 176.183594 420.34375 176.183594 Z M 420.316406 165.453125 C 424.023438 165.453125 427.308594 164.519531 430.167969 162.679688 C 433.054688 160.839844 435.289062 158.292969 436.875 155.09375 C 438.488281 151.898438 439.28125 148.160156 439.28125 143.886719 C 439.28125 139.613281 438.488281 135.875 436.875 132.679688 C 435.261719 129.480469 433 126.933594 430.027344 125.09375 C 427.054688 123.253906 423.742188 122.320312 420.035156 122.320312 C 416.328125 122.320312 412.929688 123.253906 410.042969 125.09375 C 407.15625 126.933594 404.921875 129.480469 403.25 132.679688 C 401.609375 135.875 400.789062 139.613281 400.789062 143.886719 C 400.789062 148.160156 401.609375 151.898438 403.25 155.09375 C 404.890625 158.292969 407.183594 160.839844 410.15625 162.679688 C 413.128906 164.519531 416.496094 165.453125 420.261719 165.453125 Z M 420.316406 165.453125 " fill-opacity="1" fill-rule="nonzero"/><path fill="#ffffff" d="M 549.183594 118.410156 C 544.941406 113.855469 539.136719 111.5625 531.75 111.5625 C 526.738281 111.5625 522.4375 112.808594 518.871094 115.269531 C 515.363281 117.675781 512.675781 121.15625 510.804688 125.65625 C 509.757812 122.796875 508.371094 120.363281 506.558594 118.410156 C 502.3125 113.855469 496.511719 111.5625 489.125 111.5625 C 484.113281 111.5625 479.8125 112.808594 476.246094 115.269531 C 473.785156 116.96875 471.773438 119.203125 470.101562 121.921875 L 469.535156 113.0625 L 458.554688 113.0625 L 458.554688 174.707031 L 470.273438 174.707031 L 470.273438 142.667969 C 470.273438 136.269531 471.660156 131.289062 474.460938 127.75 C 477.265625 124.214844 481.171875 122.457031 486.179688 122.457031 C 489.152344 122.539062 491.753906 123.164062 494.019531 124.296875 C 496.285156 125.457031 498.039062 127.496094 499.3125 130.410156 C 500.585938 133.328125 501.238281 137.574219 501.238281 143.175781 L 501.238281 174.734375 L 512.957031 174.734375 L 512.957031 142.695312 C 512.957031 136.300781 514.34375 131.316406 517.144531 127.78125 C 519.945312 124.242188 523.851562 122.484375 528.863281 122.484375 C 531.835938 122.570312 534.410156 123.195312 536.617188 124.328125 C 538.828125 125.488281 540.609375 127.523438 541.910156 130.441406 C 543.210938 133.355469 543.890625 137.601562 543.890625 143.207031 L 543.890625 174.765625 L 555.46875 174.765625 L 555.46875 139.496094 C 555.554688 130.042969 553.488281 123.050781 549.242188 118.46875 Z M 549.183594 118.410156 " fill-opacity="1" fill-rule="nonzero"/><path fill="#ffffff" d="M 569.222656 103.15625 C 566.902344 103.15625 564.894531 102.28125 563.195312 100.523438 C 561.5 98.769531 560.621094 96.730469 560.621094 94.410156 C 560.621094 92.089844 561.472656 89.964844 563.195312 88.296875 C 564.894531 86.628906 566.902344 85.804688 569.222656 85.804688 C 571.546875 85.804688 573.667969 86.628906 575.339844 88.296875 C 577.007812 89.96875 577.828125 91.976562 577.828125 94.410156 C 577.828125 96.84375 577.007812 98.769531 575.339844 100.523438 C 573.667969 102.277344 571.660156 103.15625 569.222656 103.15625 Z M 563.3125 174.710938 L 563.566406 113.0625 L 575.140625 113.0625 L 575.03125 174.710938 Z M 563.3125 174.710938 " fill-opacity="1" fill-rule="nonzero"/><path fill="#ffffff" d="M 632.515625 118.410156 C 628.269531 113.855469 622.464844 111.5625 615.078125 111.5625 C 610.070312 111.5625 605.765625 112.808594 602.199219 115.269531 C 599.738281 116.96875 597.730469 119.203125 596.058594 121.921875 L 595.492188 113.0625 L 584.511719 113.0625 L 584.511719 174.707031 L 596.226562 174.707031 L 596.226562 142.667969 C 596.226562 136.269531 597.613281 131.289062 600.417969 127.75 C 603.21875 124.214844 607.125 122.457031 612.136719 122.457031 C 615.105469 122.539062 617.710938 123.164062 619.976562 124.296875 C 622.238281 125.457031 623.992188 127.496094 625.265625 130.410156 C 626.542969 133.328125 627.191406 137.574219 627.191406 143.175781 L 627.191406 174.734375 L 638.910156 174.734375 L 638.910156 139.46875 C 638.910156 130.015625 636.785156 123.023438 632.570312 118.4375 Z M 632.515625 118.410156 " fill-opacity="1" fill-rule="nonzero"/><path fill="#ffffff" d="M 665.121094 107.515625 C 665.121094 103.808594 665.769531 101.09375 667.101562 99.308594 C 668.402344 97.554688 670.441406 96.648438 673.128906 96.648438 C 674.035156 96.648438 675.109375 96.847656 676.386719 97.214844 C 677.660156 97.582031 679.160156 98.175781 680.886719 98.996094 L 685.1875 89.996094 C 682.894531 88.921875 680.628906 88.074219 678.394531 87.476562 C 676.1875 86.855469 674.121094 86.542969 672.222656 86.542969 C 665.886719 86.542969 661.160156 88.214844 658.046875 91.527344 C 654.929688 94.867188 653.347656 99.761719 653.347656 106.242188 L 653.347656 113.035156 L 642.363281 113.035156 L 642.363281 122.773438 L 653.347656 122.773438 L 653.347656 174.683594 L 665.066406 174.683594 L 665.066406 122.773438 L 682.074219 122.773438 L 682.074219 113.035156 L 665.066406 113.035156 L 665.066406 107.488281 Z M 665.121094 107.515625 " fill-opacity="1" fill-rule="nonzero"/><path fill="#ffffff" d="M 710.859375 176.183594 C 704.6875 176.183594 699.285156 174.796875 694.585938 172.050781 C 689.914062 169.304688 686.234375 165.484375 683.546875 160.644531 C 680.886719 155.800781 679.527344 150.199219 679.527344 143.886719 C 679.527344 137.574219 680.828125 131.96875 683.460938 127.128906 C 686.09375 122.289062 689.746094 118.46875 694.441406 115.722656 C 699.140625 112.980469 704.519531 111.589844 710.605469 111.589844 C 716.6875 111.589844 722.066406 112.980469 726.765625 115.722656 C 731.4375 118.46875 735.117188 122.289062 737.75 127.128906 C 740.378906 131.96875 741.683594 137.574219 741.683594 143.886719 C 741.683594 150.199219 740.378906 155.800781 737.75 160.644531 C 735.117188 165.484375 731.492188 169.304688 726.851562 172.050781 C 722.210938 174.796875 716.886719 176.183594 710.886719 176.183594 Z M 710.859375 165.453125 C 714.566406 165.453125 717.851562 164.519531 720.710938 162.679688 C 723.597656 160.839844 725.832031 158.292969 727.417969 155.09375 C 729.03125 151.898438 729.824219 148.160156 729.824219 143.886719 C 729.824219 139.613281 729.03125 135.875 727.417969 132.679688 C 725.804688 129.480469 723.542969 126.933594 720.566406 125.09375 C 717.597656 123.253906 714.285156 122.320312 710.578125 122.320312 C 706.871094 122.320312 703.472656 123.253906 700.585938 125.09375 C 697.699219 126.933594 695.460938 129.480469 693.792969 132.679688 C 692.148438 135.875 691.328125 139.613281 691.328125 143.886719 C 691.328125 148.160156 692.148438 151.898438 693.792969 155.09375 C 695.433594 158.292969 697.726562 160.839844 700.699219 162.679688 C 703.671875 164.519531 707.039062 165.453125 710.804688 165.453125 Z M 710.859375 165.453125 " fill-opacity="1" fill-rule="nonzero"/></svg>